<?xml version="1.0" encoding="UTF-8"?>
<svg xmlns="http://www.w3.org/2000/svg" xmlns:xlink="http://www.w3.org/1999/xlink" width="200px" height="120px" viewBox="0 0 200 120" version="1.1">
<g id="surface1">
<path style=" stroke:none;fill-rule:nonzero;fill:rgb(14.509805%,18.431373%,24.313726%);fill-opacity:1;" d="M 56.578125 43.515625 L 57.894531 49.449219 C 57.894531 51.429688 58.550781 52.746094 59.867188 54.726562 L 59.867188 56.042969 L 59.210938 58.023438 L 54.605469 60.660156 L 53.289062 61.320312 L 51.316406 60.660156 L 48.683594 57.363281 L 46.710938 53.40625 C 41.449219 59.339844 34.867188 62.636719 27.632812 62.636719 C 21.710938 62.636719 17.105469 60.660156 14.472656 57.363281 C 11.183594 54.726562 9.210938 50.109375 9.210938 44.835938 C 9.210938 39.558594 11.183594 34.945312 15.132812 31.648438 C 19.078125 27.691406 24.34375 26.375 31.578125 26.375 C 36.472656 26.347656 41.34375 27.011719 46.050781 28.351562 L 46.050781 23.734375 C 46.050781 18.460938 44.738281 15.164062 42.761719 13.1875 C 40.789062 10.550781 37.5 9.890625 32.238281 9.890625 L 25 10.550781 C 21.835938 11.359375 18.75 12.464844 15.789062 13.847656 L 14.472656 13.847656 C 13.816406 13.847656 13.15625 13.1875 13.15625 11.867188 L 13.15625 8.570312 L 13.816406 6.59375 C 13.816406 5.933594 14.472656 5.273438 15.789062 5.273438 L 23.683594 1.976562 L 34.210938 0.660156 C 42.105469 0.660156 47.367188 2.636719 51.316406 5.933594 C 54.605469 9.890625 56.578125 15.164062 56.578125 22.417969 Z M 30.261719 54.066406 L 36.84375 52.746094 C 39.472656 52.089844 41.449219 50.109375 43.421875 48.132812 L 45.394531 44.175781 L 46.050781 38.242188 L 46.050781 35.605469 C 41.949219 34.691406 37.753906 34.246094 33.550781 34.285156 C 29.605469 34.285156 26.316406 34.945312 23.683594 36.921875 C 21.710938 38.242188 21.050781 40.878906 21.050781 44.175781 C 21.050781 47.472656 21.710938 49.449219 23.027344 51.429688 C 25 52.746094 26.972656 54.066406 30.261719 54.066406 Z M 82.894531 60.660156 L 80.261719 60 L 78.949219 58.023438 L 63.816406 6.59375 L 63.15625 3.957031 L 64.472656 2.636719 L 71.050781 2.636719 L 73.683594 3.296875 L 75 5.933594 L 86.183594 49.449219 L 96.050781 5.933594 L 97.367188 3.296875 L 100 2.636719 L 105.261719 2.636719 L 107.894531 3.296875 L 109.210938 5.933594 L 119.738281 50.109375 L 130.921875 5.933594 L 132.238281 3.296875 L 134.867188 2.636719 L 140.789062 2.636719 C 142.105469 2.636719 142.761719 3.296875 142.761719 3.957031 L 142.761719 5.273438 L 142.105469 6.59375 L 126.316406 58.023438 L 125 60.660156 L 122.367188 61.320312 L 116.449219 61.320312 L 113.816406 60.660156 L 113.15625 58.023438 L 102.632812 15.164062 L 92.761719 57.363281 L 91.449219 60 L 88.816406 60.660156 Z M 167.761719 62.636719 C 161.628906 62.589844 155.574219 61.242188 150 58.679688 L 148.027344 56.703125 L 147.367188 55.382812 L 147.367188 52.089844 C 147.367188 50.769531 148.027344 50.109375 148.683594 50.109375 L 150 50.109375 L 151.972656 50.769531 C 156.714844 52.96875 161.882812 54.09375 167.105469 54.066406 C 171.050781 54.066406 174.34375 52.746094 176.316406 51.429688 C 178.949219 50.109375 179.605469 48.132812 179.605469 45.496094 L 178.289062 40.878906 L 171.710938 37.582031 L 161.84375 34.285156 C 157.238281 32.96875 153.289062 30.328125 151.316406 27.691406 C 148.734375 24.300781 147.625 20.007812 148.246094 15.789062 C 148.863281 11.566406 151.15625 7.777344 154.605469 5.273438 L 161.183594 1.976562 C 165.410156 0.527344 169.914062 0.0742188 174.34375 0.660156 C 177.007812 1.167969 179.644531 1.832031 182.238281 2.636719 L 184.867188 3.957031 L 186.84375 5.273438 L 187.5 7.910156 L 187.5 10.550781 C 187.5 12.527344 186.84375 13.1875 186.183594 13.1875 L 183.550781 11.867188 C 179.605469 10.550781 175.65625 9.890625 171.050781 9.890625 C 167.105469 9.890625 163.816406 9.890625 161.84375 11.207031 C 159.867188 12.527344 159.210938 14.503906 159.210938 17.144531 C 159.210938 19.121094 159.867188 20.441406 161.183594 21.757812 C 162.5 23.078125 164.472656 24.394531 168.421875 25.714844 L 177.632812 28.351562 C 182.238281 30.328125 185.527344 32.308594 187.5 34.945312 C 189.472656 37.582031 190.789062 40.878906 190.789062 44.175781 L 188.816406 52.089844 L 184.210938 57.363281 C 182.238281 59.339844 179.605469 60.660156 176.972656 61.320312 Z M 167.761719 62.636719 "/>
<path style=" stroke:none;fill-rule:nonzero;fill:rgb(100%,60.000002%,0%);fill-opacity:1;" d="M 180.261719 94.945312 C 125.042969 131.90625 51.8125 126.46875 2.632812 81.757812 C 0 79.78125 1.972656 77.800781 3.949219 79.121094 C 56.914062 109.191406 120.761719 113.082031 176.972656 89.671875 C 180.261719 88.351562 183.550781 92.308594 180.261719 94.945312 Z M 180.261719 94.945312 "/>
<path style=" stroke:none;fill-rule:nonzero;fill:rgb(100%,60.000002%,0%);fill-opacity:1;" d="M 188.816406 84.394531 C 186.183594 81.097656 170.394531 82.417969 163.816406 83.734375 C 161.183594 83.734375 161.183594 81.757812 163.15625 80.441406 C 175.65625 71.867188 196.050781 74.503906 198.027344 77.144531 C 200.65625 80.441406 197.367188 100.878906 186.183594 110.769531 C 184.210938 112.089844 182.238281 111.429688 182.894531 109.449219 C 186.183594 102.855469 191.449219 87.691406 188.816406 84.394531 Z M 188.816406 84.394531 "/>
</g>
</svg>
