<?xml version="1.0" encoding="UTF-8"?>
<svg xmlns="http://www.w3.org/2000/svg" xmlns:xlink="http://www.w3.org/1999/xlink" width="200px" height="px" viewBox="0 0 200 200" version="1.1">
<g id="surface1">
<path style=" stroke:none;fill-rule:nonzero;fill:rgb(87.058824%,29.803923%,21.176471%);fill-opacity:1;" d="M 196.226562 91.09375 L 108.90625 3.765625 C 103.875 -1.261719 95.726562 -1.261719 90.695312 3.765625 L 72.5625 21.890625 L 95.5625 44.898438 C 101.097656 43.011719 107.222656 44.445312 111.34375 48.59375 C 115.46875 52.742188 116.863281 58.875 114.9375 64.398438 L 137.101562 86.570312 C 143.929688 84.222656 151.46875 86.960938 155.199219 93.140625 C 158.929688 99.320312 157.839844 107.265625 152.582031 112.214844 C 147.328125 117.160156 139.328125 117.769531 133.386719 113.671875 C 127.441406 109.574219 125.167969 101.882812 127.921875 95.210938 L 107.25 74.53125 L 107.25 128.9375 C 113.722656 132.140625 117.085938 139.425781 115.316406 146.429688 C 113.550781 153.433594 107.132812 158.25 99.914062 157.996094 C 92.695312 157.742188 86.636719 152.480469 85.367188 145.371094 C 84.097656 138.261719 87.964844 131.230469 94.648438 128.492188 L 94.648438 73.59375 C 90.867188 72.046875 87.863281 69.050781 86.300781 65.277344 C 84.738281 61.5 84.75 57.257812 86.328125 53.492188 L 63.640625 30.8125 L 3.773438 90.6875 C -1.257812 95.71875 -1.257812 103.875 3.773438 108.90625 L 91.09375 196.226562 C 96.125 201.257812 104.28125 201.257812 109.3125 196.226562 L 196.226562 109.3125 C 201.257812 104.277344 201.257812 96.121094 196.226562 91.085938 "/>
</g>
</svg>
