<?xml version="1.0" encoding="UTF-8"?>
<svg xmlns="http://www.w3.org/2000/svg" xmlns:xlink="http://www.w3.org/1999/xlink" width="200px" height="px" viewBox="0 0 200 270" version="1.1">
<g id="surface1">
<path style=" stroke:none;fill-rule:nonzero;fill:rgb(32.549021%,50.980395%,63.137257%);fill-opacity:1;" d="M 64.84375 208.351562 C 64.84375 208.351562 53.90625 214.59375 71.875 216.9375 C 92.96875 219.277344 103.90625 218.496094 127.34375 214.59375 C 127.34375 214.59375 133.59375 218.496094 142.1875 221.617188 C 89.84375 244.25 22.65625 220.058594 64.84375 208.351562 M 57.8125 179.480469 C 57.8125 179.480469 46.09375 188.0625 64.0625 189.625 C 86.71875 191.964844 104.6875 191.964844 135.9375 186.503906 C 135.9375 186.503906 140.625 190.40625 147.65625 192.746094 C 83.59375 211.472656 12.5 194.304688 57.8125 179.480469 "/>
<path style=" stroke:none;fill-rule:nonzero;fill:rgb(90.588236%,43.529412%,0%);fill-opacity:1;" d="M 112.5 129.539062 C 125.78125 144.363281 109.375 157.628906 109.375 157.628906 C 109.375 157.628906 142.1875 140.460938 126.5625 119.394531 C 112.5 99.105469 101.5625 89.738281 160.9375 55.40625 C 160.9375 55.40625 67.96875 78.035156 112.5 129.539062 "/>
<path style=" stroke:none;fill-rule:nonzero;fill:rgb(32.549021%,50.980395%,63.137257%);fill-opacity:1;" d="M 182.03125 230.203125 C 182.03125 230.203125 189.84375 236.445312 174.21875 241.90625 C 143.75 251.273438 46.875 253.613281 20.3125 241.90625 C 10.9375 238.003906 28.90625 231.761719 34.375 230.984375 L 43.75 229.421875 C 32.8125 222.398438 -25.78125 244.25 14.0625 251.273438 C 121.875 268.4375 210.15625 243.46875 182.03125 230.203125 M 69.53125 148.265625 C 69.53125 148.265625 20.3125 159.972656 52.34375 164.652344 C 65.625 166.214844 92.1875 166.214844 117.1875 163.871094 C 137.5 162.3125 157.8125 158.410156 157.8125 158.410156 L 145.3125 165.433594 C 95.3125 177.917969 -0.78125 171.675781 27.34375 158.410156 C 50.78125 147.484375 69.53125 148.265625 69.53125 148.265625 M 157.8125 197.429688 C 207.8125 171.675781 184.375 145.925781 167.96875 149.828125 L 162.5 151.386719 C 162.5 151.386719 164.0625 149.046875 167.1875 147.484375 C 199.21875 136.5625 224.21875 181.039062 156.25 198.988281 L 157.8125 197.429688 "/>
<path style=" stroke:none;fill-rule:nonzero;fill:rgb(90.588236%,43.529412%,0%);fill-opacity:1;" d="M 126.5625 0 C 126.5625 0 154.6875 28.09375 100 71.011719 C 56.25 106.128906 90.625 125.636719 100 148.265625 C 75 124.855469 56.25 104.566406 68.75 85.839844 C 86.71875 58.527344 138.28125 44.480469 126.5625 0 "/>
<path style=" stroke:none;fill-rule:nonzero;fill:rgb(32.549021%,50.980395%,63.137257%);fill-opacity:1;" d="M 74.21875 269.21875 C 122.65625 272.339844 197.65625 266.878906 199.21875 244.25 C 199.21875 244.25 196.09375 252.832031 159.375 259.855469 C 117.96875 267.660156 66.40625 266.878906 35.9375 261.417969 C 35.9375 261.417969 42.1875 266.878906 74.21875 269.21875 "/>
</g>
</svg>
