<?xml version="1.0" encoding="UTF-8"?>
<svg xmlns="http://www.w3.org/2000/svg" xmlns:xlink="http://www.w3.org/1999/xlink" width="200px" height="84px" viewBox="0 0 199 84" version="1.1">
<defs>
<linearGradient id="linear0" gradientUnits="userSpaceOnUse" x1="19.345501" y1="9.01882" x2="14.2302" y2="14.45" gradientTransform="matrix(2.618421,0,0,2.625,0,0)">
<stop offset="0.176" style="stop-color:rgb(0%,32.156863%,80%);stop-opacity:1;"/>
<stop offset="1" style="stop-color:rgb(14.901961%,51.764706%,100%);stop-opacity:1;"/>
</linearGradient>
<linearGradient id="linear1" gradientUnits="userSpaceOnUse" x1="13.5601" y1="15.0525" x2="7.63562" y2="20.9874" gradientTransform="matrix(2.618421,0,0,2.625,0,0)">
<stop offset="0.176" style="stop-color:rgb(0%,32.156863%,80%);stop-opacity:1;"/>
<stop offset="1" style="stop-color:rgb(14.901961%,51.764706%,100%);stop-opacity:1;"/>
</linearGradient>
</defs>
<g id="surface1">
<path style=" stroke:none;fill-rule:nonzero;fill:rgb(14.509805%,21.960784%,34.509805%);fill-opacity:1;" d="M 101.847656 16.101562 L 109.261719 16.101562 L 109.261719 52.84375 C 109.261719 62.53125 104.851562 69.296875 94.617188 69.296875 C 90.769531 69.296875 87.765625 68.65625 85.703125 67.925781 L 85.703125 60.886719 C 87.953125 61.800781 90.675781 62.257812 93.398438 62.257812 C 99.6875 62.257812 101.847656 58.601562 101.847656 53.300781 Z M 101.847656 16.101562 "/>
<path style=" stroke:none;fill-rule:nonzero;fill:rgb(14.509805%,21.960784%,34.509805%);fill-opacity:1;" d="M 122.875 13.269531 C 125.785156 13.269531 127.847656 15.003906 127.847656 18.113281 C 127.847656 21.128906 125.785156 22.957031 122.875 22.957031 C 119.964844 22.957031 117.898438 21.21875 117.898438 18.113281 C 117.898438 15.09375 119.964844 13.269531 122.875 13.269531 Z M 119.210938 28.714844 L 126.347656 28.714844 L 126.347656 68.929688 L 119.210938 68.929688 Z M 119.210938 28.714844 "/>
<path style=" stroke:none;fill-rule:nonzero;fill:rgb(14.509805%,21.960784%,34.509805%);fill-opacity:1;" d="M 143.992188 68.929688 L 137.046875 68.929688 L 137.046875 28.714844 L 143.992188 28.714844 L 143.992188 35.753906 C 146.433594 31 150.5625 27.617188 158.636719 28.074219 L 158.636719 34.839844 C 149.53125 33.925781 143.992188 36.574219 143.992188 45.164062 Z M 143.992188 68.929688 "/>
<path style=" stroke:none;fill-rule:nonzero;fill:rgb(14.509805%,21.960784%,34.509805%);fill-opacity:1;" d="M 191.960938 61.710938 C 189.332031 67.011719 184.355469 69.753906 177.972656 69.753906 C 166.992188 69.753906 161.453125 60.703125 161.453125 48.820312 C 161.453125 37.488281 167.273438 27.890625 178.816406 27.890625 C 184.824219 27.890625 189.519531 30.542969 191.960938 35.753906 L 191.960938 28.714844 L 199.09375 28.714844 L 199.09375 68.929688 L 191.960938 68.929688 Z M 179.851562 63.355469 C 186.234375 63.355469 191.867188 59.425781 191.867188 50.46875 L 191.867188 47.269531 C 191.867188 38.3125 186.703125 34.382812 180.601562 34.382812 C 172.621094 34.382812 168.492188 39.5 168.492188 48.820312 C 168.585938 58.511719 172.527344 63.355469 179.851562 63.355469 Z M 179.851562 63.355469 "/>
<path style=" stroke:none;fill-rule:nonzero;fill:rgb(14.901961%,51.764709%,100%);fill-opacity:1;" d="M 64.582031 7.875 L 32.101562 7.875 C 32.101562 15.734375 38.671875 22.132812 46.746094 22.132812 L 52.753906 22.132812 L 52.753906 27.707031 C 52.753906 35.570312 59.324219 41.96875 67.398438 41.96875 L 67.398438 10.617188 C 67.398438 9.0625 66.175781 7.875 64.582031 7.875 Z M 64.582031 7.875 "/>
<path style=" stroke:none;fill-rule:nonzero;fill:url(#linear0);" d="M 48.53125 23.59375 L 16.050781 23.59375 C 16.050781 31.457031 22.621094 37.855469 30.695312 37.855469 L 36.703125 37.855469 L 36.703125 43.519531 C 36.703125 51.382812 43.273438 57.777344 51.34375 57.777344 L 51.34375 26.335938 C 51.34375 24.875 50.125 23.59375 48.53125 23.59375 Z M 48.53125 23.59375 "/>
<path style=" stroke:none;fill-rule:nonzero;fill:url(#linear1);" d="M 32.476562 39.40625 L 0 39.40625 C 0 47.269531 6.570312 53.667969 14.644531 53.667969 L 20.652344 53.667969 L 20.652344 59.242188 C 20.652344 67.101562 27.222656 73.5 35.292969 73.5 L 35.292969 42.148438 C 35.292969 40.597656 33.980469 39.40625 32.476562 39.40625 Z M 32.476562 39.40625 "/>
</g>
</svg>
