<?xml version="1.0" encoding="UTF-8"?>
<svg xmlns="http://www.w3.org/2000/svg" xmlns:xlink="http://www.w3.org/1999/xlink" width="200px" height="68px" viewBox="0 0 200 68" version="1.1">
<defs>
<linearGradient id="linear0" gradientUnits="userSpaceOnUse" x1="-7708.796875" y1="-803.360107" x2="-7633.152832" y2="-714.90741" gradientTransform="matrix(0.0535938,-0.115459,0.114936,0.0538374,531.09045,-841.017307)">
<stop offset="0" style="stop-color:rgb(96.470588%,60%,13.72549%);stop-opacity:1;"/>
<stop offset="0.3123" style="stop-color:rgb(96.862745%,60.392157%,13.72549%);stop-opacity:1;"/>
<stop offset="0.8383" style="stop-color:rgb(91.372549%,47.058824%,14.901961%);stop-opacity:1;"/>
</linearGradient>
<filter id="alpha" filterUnits="objectBoundingBox" x="0%" y="0%" width="100%" height="100%">
  <feColorMatrix type="matrix" in="SourceGraphic" values="0 0 0 0 1 0 0 0 0 1 0 0 0 0 1 0 0 0 1 0"/>
</filter>
<mask id="mask0">
  <g filter="url(#alpha)">
<rect x="0" y="0" width="200" height="68" style="fill:rgb(0%,0%,0%);fill-opacity:0.34902;stroke:none;"/>
  </g>
</mask>
<clipPath id="clip1">
  <rect x="0" y="0" width="200" height="68"/>
</clipPath>
<g id="surface5" clip-path="url(#clip1)">
<path style=" stroke:none;fill-rule:nonzero;fill:rgb(74.509805%,12.54902%,18.039216%);fill-opacity:1;" d="M 22.371094 31.234375 C 22.117188 31.285156 21.863281 31.324219 21.609375 31.363281 C 21.738281 31.347656 21.875 31.324219 22.003906 31.296875 C 22.128906 31.285156 22.257812 31.261719 22.371094 31.234375 Z M 22.371094 31.234375 "/>
</g>
<mask id="mask1">
  <g filter="url(#alpha)">
<rect x="0" y="0" width="200" height="68" style="fill:rgb(0%,0%,0%);fill-opacity:0.34902;stroke:none;"/>
  </g>
</mask>
<clipPath id="clip2">
  <rect x="0" y="0" width="200" height="68"/>
</clipPath>
<g id="surface8" clip-path="url(#clip2)">
<path style=" stroke:none;fill-rule:nonzero;fill:rgb(74.509805%,12.54902%,18.039216%);fill-opacity:1;" d="M 23.03125 28.011719 C 23.019531 28.011719 23.019531 28.011719 23.03125 28.011719 C 23.070312 28.011719 23.105469 28 23.144531 28 C 23.308594 27.972656 23.472656 27.949219 23.625 27.910156 C 23.4375 27.949219 23.234375 27.972656 23.03125 28.011719 Z M 23.03125 28.011719 "/>
</g>
<linearGradient id="linear1" gradientUnits="userSpaceOnUse" x1="-8268.638672" y1="-813.12323" x2="-7728.958496" y2="-813.12323" gradientTransform="matrix(0.0535938,-0.115459,0.114936,0.0538374,531.09045,-841.017307)">
<stop offset="0.3233" style="stop-color:rgb(61.960784%,12.54902%,39.215686%);stop-opacity:1;"/>
<stop offset="0.6302" style="stop-color:rgb(78.823529%,12.54902%,21.568627%);stop-opacity:1;"/>
<stop offset="0.7514" style="stop-color:rgb(80.392157%,13.72549%,20.784314%);stop-opacity:1;"/>
<stop offset="1" style="stop-color:rgb(91.372549%,47.058824%,14.901961%);stop-opacity:1;"/>
</linearGradient>
<linearGradient id="linear2" gradientUnits="userSpaceOnUse" x1="-8203.492188" y1="-758.994019" x2="-7881.89502" y2="-758.994019" gradientTransform="matrix(0.0535938,-0.115459,0.114936,0.0538374,531.09045,-841.017307)">
<stop offset="0" style="stop-color:rgb(15.686275%,14.901961%,38.431373%);stop-opacity:1;"/>
<stop offset="0.0954839" style="stop-color:rgb(40%,18.039216%,55.294118%);stop-opacity:1;"/>
<stop offset="0.7882" style="stop-color:rgb(62.352941%,12.54902%,39.215686%);stop-opacity:1;"/>
<stop offset="0.9487" style="stop-color:rgb(80.392157%,12.54902%,19.607843%);stop-opacity:1;"/>
</linearGradient>
<linearGradient id="linear3" gradientUnits="userSpaceOnUse" x1="-8238.328125" y1="-818.152222" x2="-7698.646973" y2="-818.152222" gradientTransform="matrix(0.0535938,-0.115459,0.114936,0.0538374,531.09045,-841.017307)">
<stop offset="0.3233" style="stop-color:rgb(61.960784%,12.54902%,39.215686%);stop-opacity:1;"/>
<stop offset="0.6302" style="stop-color:rgb(78.823529%,12.54902%,21.568627%);stop-opacity:1;"/>
<stop offset="0.7514" style="stop-color:rgb(80.392157%,13.72549%,20.784314%);stop-opacity:1;"/>
<stop offset="1" style="stop-color:rgb(91.372549%,47.058824%,14.901961%);stop-opacity:1;"/>
</linearGradient>
<linearGradient id="linear4" gradientUnits="userSpaceOnUse" x1="-8198.967773" y1="-810.850586" x2="-7915.350098" y2="-810.850586" gradientTransform="matrix(0.0535938,-0.115459,0.114936,0.0538374,531.09045,-841.017307)">
<stop offset="0" style="stop-color:rgb(15.686275%,14.901961%,38.431373%);stop-opacity:1;"/>
<stop offset="0.0954839" style="stop-color:rgb(40%,18.039216%,55.294118%);stop-opacity:1;"/>
<stop offset="0.7882" style="stop-color:rgb(62.352941%,12.54902%,39.215686%);stop-opacity:1;"/>
<stop offset="0.9487" style="stop-color:rgb(80.392157%,12.54902%,19.607843%);stop-opacity:1;"/>
</linearGradient>
<linearGradient id="linear5" gradientUnits="userSpaceOnUse" x1="-8238.328125" y1="-762.297119" x2="-7698.646973" y2="-762.297119" gradientTransform="matrix(0.0535938,-0.115459,0.114936,0.0538374,531.09045,-841.017307)">
<stop offset="0.3233" style="stop-color:rgb(61.960784%,12.54902%,39.215686%);stop-opacity:1;"/>
<stop offset="0.6302" style="stop-color:rgb(78.823529%,12.54902%,21.568627%);stop-opacity:1;"/>
<stop offset="0.7514" style="stop-color:rgb(80.392157%,13.72549%,20.784314%);stop-opacity:1;"/>
<stop offset="1" style="stop-color:rgb(91.372549%,47.058824%,14.901961%);stop-opacity:1;"/>
</linearGradient>
<linearGradient id="linear6" gradientUnits="userSpaceOnUse" x1="-8271.805664" y1="-765.070679" x2="-7732.125" y2="-765.070679" gradientTransform="matrix(0.0535938,-0.115459,0.114936,0.0538374,531.09045,-841.017307)">
<stop offset="0.3233" style="stop-color:rgb(61.960784%,12.54902%,39.215686%);stop-opacity:1;"/>
<stop offset="0.6302" style="stop-color:rgb(78.823529%,12.54902%,21.568627%);stop-opacity:1;"/>
<stop offset="0.7514" style="stop-color:rgb(80.392157%,13.72549%,20.784314%);stop-opacity:1;"/>
<stop offset="1" style="stop-color:rgb(91.372549%,47.058824%,14.901961%);stop-opacity:1;"/>
</linearGradient>
<mask id="mask2">
  <g filter="url(#alpha)">
<rect x="0" y="0" width="200" height="68" style="fill:rgb(0%,0%,0%);fill-opacity:0.34902;stroke:none;"/>
  </g>
</mask>
<clipPath id="clip3">
  <rect x="0" y="0" width="200" height="68"/>
</clipPath>
<g id="surface11" clip-path="url(#clip3)">
<path style=" stroke:none;fill-rule:nonzero;fill:rgb(74.509805%,12.54902%,18.039216%);fill-opacity:1;" d="M 22.003906 31.3125 C 21.875 31.335938 21.75 31.347656 21.609375 31.375 C 21.738281 31.347656 21.863281 31.324219 22.003906 31.3125 Z M 22.003906 31.3125 "/>
</g>
<mask id="mask3">
  <g filter="url(#alpha)">
<rect x="0" y="0" width="200" height="68" style="fill:rgb(0%,0%,0%);fill-opacity:0.34902;stroke:none;"/>
  </g>
</mask>
<clipPath id="clip4">
  <rect x="0" y="0" width="200" height="68"/>
</clipPath>
<g id="surface14" clip-path="url(#clip4)">
<path style=" stroke:none;fill-rule:nonzero;fill:rgb(74.509805%,12.54902%,18.039216%);fill-opacity:1;" d="M 23.019531 28.011719 C 23.054688 28.011719 23.09375 28 23.144531 28 C 23.105469 28 23.070312 28.011719 23.019531 28.011719 Z M 23.019531 28.011719 "/>
</g>
</defs>
<g id="surface1">
<path style=" stroke:none;fill-rule:nonzero;fill:url(#linear0);" d="M 28.902344 0.328125 C 27.835938 0.964844 26.0625 2.75 23.957031 5.335938 L 25.894531 9.015625 C 27.253906 7.054688 28.648438 5.296875 30.042969 3.792969 C 30.144531 3.679688 30.207031 3.613281 30.207031 3.613281 C 30.15625 3.679688 30.09375 3.730469 30.042969 3.792969 C 29.585938 4.289062 28.21875 5.894531 26.148438 9.09375 C 28.140625 8.992188 31.199219 8.582031 33.695312 8.152344 C 34.445312 3.972656 32.972656 2.0625 32.972656 2.0625 C 32.972656 2.0625 31.097656 -0.984375 28.902344 0.328125 Z M 28.902344 0.328125 "/>
<path style=" stroke:none;fill-rule:nonzero;fill:rgb(74.509805%,12.54902%,18.039216%);fill-opacity:1;" d="M 22.371094 31.234375 C 22.117188 31.285156 21.863281 31.324219 21.609375 31.363281 C 21.738281 31.347656 21.875 31.324219 22.003906 31.296875 C 22.128906 31.285156 22.257812 31.261719 22.371094 31.234375 Z M 22.371094 31.234375 "/>
<use xlink:href="#surface5" mask="url(#mask0)"/>
<path style=" stroke:none;fill-rule:nonzero;fill:rgb(74.509805%,12.54902%,18.039216%);fill-opacity:1;" d="M 23.03125 28.011719 C 23.019531 28.011719 23.019531 28.011719 23.03125 28.011719 C 23.070312 28.011719 23.105469 28 23.144531 28 C 23.308594 27.972656 23.472656 27.949219 23.625 27.910156 C 23.4375 27.949219 23.234375 27.972656 23.03125 28.011719 Z M 23.03125 28.011719 "/>
<use xlink:href="#surface8" mask="url(#mask1)"/>
<path style=" stroke:none;fill-rule:nonzero;fill:url(#linear1);" d="M 20.164062 18.519531 C 20.761719 17.410156 21.355469 16.328125 21.953125 15.273438 C 22.574219 14.175781 23.207031 13.117188 23.855469 12.085938 C 23.894531 12.023438 23.929688 11.960938 23.96875 11.910156 C 24.601562 10.902344 25.238281 9.933594 25.882812 9.003906 L 23.945312 5.335938 C 23.804688 5.511719 23.652344 5.691406 23.5 5.882812 C 22.941406 6.582031 22.359375 7.335938 21.761719 8.136719 C 21.089844 9.042969 20.40625 9.996094 19.695312 11.003906 C 19.046875 11.933594 18.390625 12.914062 17.730469 13.921875 C 17.171875 14.789062 16.613281 15.667969 16.054688 16.570312 C 16.03125 16.609375 16.015625 16.636719 15.992188 16.671875 L 18.515625 21.679688 C 19.074219 20.621094 19.617188 19.566406 20.164062 18.519531 Z M 20.164062 18.519531 "/>
<path style=" stroke:none;fill-rule:nonzero;fill:url(#linear2);" d="M 8.660156 46.765625 C 8.332031 47.679688 7.988281 48.625 7.660156 49.59375 C 7.660156 49.605469 7.648438 49.617188 7.648438 49.628906 C 7.597656 49.769531 7.546875 49.898438 7.507812 50.039062 C 7.28125 50.6875 7.089844 51.273438 6.632812 52.597656 C 7.382812 52.941406 7.976562 53.835938 8.535156 54.855469 C 8.472656 53.796875 8.039062 52.800781 7.214844 52.039062 C 10.882812 52.203125 14.050781 51.273438 15.675781 48.574219 C 15.8125 48.332031 15.953125 48.078125 16.082031 47.808594 C 15.332031 48.75 14.417969 49.160156 12.683594 49.058594 C 12.683594 49.058594 12.667969 49.058594 12.667969 49.058594 C 12.667969 49.058594 12.683594 49.058594 12.683594 49.058594 C 15.230469 47.910156 16.511719 46.800781 17.640625 44.980469 C 17.90625 44.546875 18.171875 44.074219 18.441406 43.554688 C 16.207031 45.859375 13.621094 46.507812 10.894531 46.011719 L 8.851562 46.242188 C 8.789062 46.421875 8.726562 46.585938 8.660156 46.765625 Z M 8.660156 46.765625 "/>
<path style=" stroke:none;fill-rule:nonzero;fill:url(#linear3);" d="M 9.613281 42.164062 C 10.058594 41.019531 10.511719 39.859375 10.96875 38.6875 C 11.414062 37.566406 11.871094 36.445312 12.339844 35.3125 C 12.808594 34.175781 13.289062 33.042969 13.773438 31.910156 C 14.265625 30.75 14.773438 29.605469 15.292969 28.457031 C 15.800781 27.324219 16.335938 26.191406 16.855469 25.070312 C 17.042969 24.660156 17.234375 24.265625 17.4375 23.859375 C 17.765625 23.171875 18.109375 22.484375 18.453125 21.792969 C 18.464844 21.757812 18.492188 21.71875 18.503906 21.679688 L 16.003906 16.6875 C 15.964844 16.75 15.929688 16.824219 15.878906 16.890625 C 15.292969 17.859375 14.699219 18.839844 14.128906 19.84375 C 13.542969 20.863281 12.972656 21.894531 12.414062 22.953125 C 11.945312 23.84375 11.488281 24.738281 11.035156 25.640625 C 10.945312 25.820312 10.855469 26.011719 10.765625 26.191406 C 10.222656 27.324219 9.714844 28.433594 9.269531 29.488281 C 8.761719 30.6875 8.320312 31.832031 7.925781 32.917969 C 7.671875 33.628906 7.429688 34.316406 7.214844 34.980469 C 7.039062 35.539062 6.875 36.113281 6.707031 36.675781 C 6.328125 38 6.011719 39.324219 5.746094 40.648438 L 8.28125 45.679688 C 8.609375 44.777344 8.964844 43.871094 9.308594 42.941406 C 9.410156 42.6875 9.511719 42.433594 9.613281 42.164062 Z M 9.613281 42.164062 "/>
<path style=" stroke:none;fill-rule:nonzero;fill:url(#linear4);" d="M 5.707031 40.828125 C 5.390625 42.433594 5.160156 44.039062 5.046875 45.644531 C 5.046875 45.695312 5.035156 45.757812 5.035156 45.808594 C 4.25 44.535156 2.117188 43.285156 2.128906 43.300781 C 3.652344 45.515625 4.804688 47.707031 4.972656 49.859375 C 4.160156 50.023438 3.042969 49.785156 1.761719 49.3125 C 3.105469 50.546875 4.109375 50.890625 4.503906 50.980469 C 3.273438 51.058594 1.992188 51.910156 0.699219 52.890625 C 2.585938 52.113281 4.121094 51.808594 5.210938 52.0625 C 3.476562 56.992188 1.738281 62.445312 0 68.230469 C 0.53125 68.078125 0.851562 67.707031 1.027344 67.222656 C 1.332031 66.179688 3.398438 59.300781 6.621094 50.265625 C 6.707031 50.011719 6.808594 49.757812 6.898438 49.492188 C 6.925781 49.414062 6.949219 49.351562 6.976562 49.273438 C 7.316406 48.332031 7.671875 47.363281 8.039062 46.367188 C 8.128906 46.140625 8.207031 45.921875 8.292969 45.695312 C 8.292969 45.695312 8.292969 45.679688 8.292969 45.679688 L 5.757812 40.648438 C 5.730469 40.710938 5.71875 40.765625 5.707031 40.828125 Z M 5.707031 40.828125 "/>
<path style=" stroke:none;fill-rule:nonzero;fill:url(#linear5);" d="M 18.921875 22.113281 C 18.84375 22.265625 18.78125 22.40625 18.707031 22.558594 C 18.492188 23.015625 18.261719 23.476562 18.046875 23.949219 C 17.804688 24.457031 17.566406 24.980469 17.3125 25.515625 C 17.183594 25.78125 17.058594 26.050781 16.929688 26.328125 C 16.550781 27.15625 16.167969 28.011719 15.777344 28.890625 C 15.292969 29.972656 14.8125 31.09375 14.316406 32.265625 C 13.847656 33.375 13.367188 34.535156 12.886719 35.71875 C 12.429688 36.851562 11.960938 38.011719 11.488281 39.222656 C 11.070312 40.292969 10.652344 41.402344 10.222656 42.535156 C 10.195312 42.585938 10.183594 42.648438 10.160156 42.699219 C 9.738281 43.820312 9.308594 44.980469 8.878906 46.164062 C 8.863281 46.191406 8.851562 46.214844 8.851562 46.242188 L 10.894531 46.011719 C 10.855469 46 10.816406 46 10.765625 45.988281 C 13.214844 45.679688 16.460938 43.847656 18.554688 41.578125 C 19.515625 40.535156 20.390625 39.3125 21.203125 37.871094 C 21.8125 36.800781 22.371094 35.617188 22.917969 34.292969 C 23.386719 33.144531 23.84375 31.898438 24.273438 30.546875 C 23.714844 30.839844 23.070312 31.054688 22.359375 31.210938 C 22.230469 31.234375 22.105469 31.261719 21.976562 31.285156 C 21.851562 31.3125 21.722656 31.324219 21.585938 31.347656 C 23.867188 30.46875 25.300781 28.777344 26.339844 26.6875 C 25.746094 27.09375 24.769531 27.628906 23.601562 27.898438 C 23.449219 27.933594 23.285156 27.960938 23.121094 27.984375 C 23.082031 27.984375 23.042969 28 22.992188 28 C 23.777344 27.667969 24.449219 27.296875 25.035156 26.851562 C 25.160156 26.761719 25.273438 26.660156 25.390625 26.558594 C 25.566406 26.40625 25.730469 26.242188 25.894531 26.074219 C 25.996094 25.960938 26.097656 25.859375 26.199219 25.742188 C 26.429688 25.476562 26.644531 25.183594 26.835938 24.863281 C 26.898438 24.761719 26.960938 24.671875 27.011719 24.570312 C 27.089844 24.417969 27.164062 24.277344 27.226562 24.136719 C 27.546875 23.5 27.796875 22.929688 28 22.417969 C 28.101562 22.164062 28.191406 21.933594 28.269531 21.71875 C 28.292969 21.628906 28.332031 21.550781 28.355469 21.464844 C 28.433594 21.222656 28.507812 21.003906 28.558594 20.8125 C 28.636719 20.535156 28.6875 20.304688 28.710938 20.136719 C 28.636719 20.203125 28.546875 20.265625 28.445312 20.316406 C 27.761719 20.722656 26.582031 21.105469 25.628906 21.285156 L 27.507812 21.082031 L 25.628906 21.285156 C 25.617188 21.285156 25.605469 21.285156 25.59375 21.296875 C 25.503906 21.308594 25.402344 21.324219 25.300781 21.347656 C 25.3125 21.335938 25.339844 21.335938 25.351562 21.324219 L 18.933594 22.023438 C 18.945312 22.074219 18.933594 22.101562 18.921875 22.113281 Z M 18.921875 22.113281 "/>
<path style=" stroke:none;fill-rule:nonzero;fill:url(#linear6);" d="M 26.148438 9.09375 C 25.578125 9.972656 24.957031 10.980469 24.285156 12.101562 C 24.246094 12.164062 24.210938 12.214844 24.183594 12.277344 C 23.601562 13.257812 22.992188 14.328125 22.34375 15.515625 C 21.789062 16.53125 21.203125 17.617188 20.59375 18.800781 C 20.0625 19.820312 19.53125 20.902344 18.960938 22.050781 L 25.375 21.347656 C 27.242188 20.480469 28.078125 19.707031 28.890625 18.570312 C 29.105469 18.265625 29.320312 17.933594 29.535156 17.589844 C 30.195312 16.558594 30.84375 15.425781 31.414062 14.289062 C 31.972656 13.195312 32.464844 12.113281 32.832031 11.144531 C 33.074219 10.519531 33.265625 9.945312 33.402344 9.4375 C 33.519531 8.992188 33.605469 8.570312 33.683594 8.164062 C 31.199219 8.582031 28.140625 8.992188 26.148438 9.09375 Z M 26.148438 9.09375 "/>
<path style=" stroke:none;fill-rule:nonzero;fill:rgb(74.509805%,12.54902%,18.039216%);fill-opacity:1;" d="M 22.003906 31.3125 C 21.875 31.335938 21.75 31.347656 21.609375 31.375 C 21.738281 31.347656 21.863281 31.324219 22.003906 31.3125 Z M 22.003906 31.3125 "/>
<use xlink:href="#surface11" mask="url(#mask2)"/>
<path style=" stroke:none;fill-rule:nonzero;fill:rgb(0%,0%,0%);fill-opacity:1;" d="M 22.003906 31.3125 C 21.875 31.335938 21.75 31.347656 21.609375 31.375 C 21.738281 31.347656 21.863281 31.324219 22.003906 31.3125 Z M 22.003906 31.3125 "/>
<path style=" stroke:none;fill-rule:nonzero;fill:rgb(74.509805%,12.54902%,18.039216%);fill-opacity:1;" d="M 23.019531 28.011719 C 23.054688 28.011719 23.09375 28 23.144531 28 C 23.105469 28 23.070312 28.011719 23.019531 28.011719 Z M 23.019531 28.011719 "/>
<use xlink:href="#surface14" mask="url(#mask3)"/>
<path style=" stroke:none;fill-rule:nonzero;fill:rgb(0%,0%,0%);fill-opacity:1;" d="M 23.019531 28.011719 C 23.054688 28.011719 23.09375 28 23.144531 28 C 23.105469 28 23.070312 28.011719 23.019531 28.011719 Z M 23.019531 28.011719 "/>
<path style=" stroke:none;fill-rule:nonzero;fill:rgb(69.01961%,68.627453%,69.01961%);fill-opacity:1;" d="M 25.96875 21.230469 L 25.96875 22.164062 L 25.707031 22.164062 L 25.707031 21.230469 L 25.378906 21.230469 L 25.378906 21.007812 L 26.289062 21.007812 L 26.289062 21.230469 Z M 25.96875 21.230469 "/>
<path style=" stroke:none;fill-rule:nonzero;fill:rgb(69.01961%,68.627453%,69.01961%);fill-opacity:1;" d="M 27.503906 21.433594 L 27.195312 22.066406 L 27.039062 22.066406 L 26.730469 21.433594 L 26.730469 22.164062 L 26.480469 22.164062 L 26.480469 21.007812 L 26.828125 21.007812 L 27.128906 21.640625 L 27.425781 21.007812 L 27.773438 21.007812 L 27.773438 22.164062 L 27.523438 22.164062 L 27.523438 21.433594 Z M 27.503906 21.433594 "/>
<path style="fill-rule:nonzero;fill:rgb(82.352942%,12.941177%,15.686275%);fill-opacity:1;stroke-width:1.228765;stroke-linecap:butt;stroke-linejoin:round;stroke:rgb(82.352942%,12.941177%,15.686275%);stroke-opacity:1;stroke-miterlimit:4;" d="M 481.043213 297.795338 C 479.651807 297.795338 478.427979 297.724566 477.376807 297.572912 C 476.330713 297.441478 475.442041 297.284768 474.710791 297.092673 L 474.710791 288.797177 C 475.502979 288.969052 476.340869 289.120706 477.219385 289.247085 C 478.077588 289.373463 479.017041 289.43918 480.0479 289.43918 C 481.033057 289.43918 481.942041 289.333022 482.779932 289.120706 C 483.638135 288.903335 484.374463 288.529254 484.999072 287.993408 C 485.638916 287.477783 486.131494 286.785228 486.476807 285.905632 C 486.842432 285.026037 487.020166 283.924015 487.020166 282.594511 L 487.020166 236.981919 L 496.988525 236.981919 L 496.988525 282.270982 C 496.988525 284.97043 496.592432 287.295798 495.795166 289.247085 C 495.028369 291.198371 493.931494 292.805908 492.519775 294.069695 C 491.128369 295.353702 489.452588 296.299015 487.502588 296.895522 C 485.552588 297.497085 483.399463 297.795338 481.043213 297.795338 " transform="matrix(0.769231,0,0,0.772727,-333.529334,-163.704423)"/>
<path style="fill-rule:nonzero;fill:rgb(0%,0%,0%);fill-opacity:1;stroke-width:1.228765;stroke-linecap:butt;stroke-linejoin:round;stroke:rgb(0%,0%,0%);stroke-opacity:1;stroke-miterlimit:4;" d="M 502.325635 236.986974 L 502.325635 283.974566 L 511.232666 283.974566 L 511.232666 262.111055 C 511.232666 261.514548 511.217432 260.842213 511.197119 260.088996 C 511.197119 259.340835 511.176807 258.562342 511.131104 257.748463 C 511.110791 256.934585 511.0854 256.115651 511.044775 255.276496 C 511.019385 254.442397 510.983838 253.623463 510.943213 252.83486 C 510.856885 250.989732 510.750244 249.083941 510.623291 247.112434 L 510.912744 247.112434 L 521.231494 283.974566 L 530.382275 283.974566 L 541.508447 247.173096 L 541.762354 247.173096 C 541.696338 249.124382 541.630322 250.994787 541.543994 252.794419 C 541.523682 253.567857 541.483057 254.361515 541.442432 255.175393 C 541.422119 255.989272 541.401807 256.787985 541.376416 257.581643 C 541.356104 258.375302 541.335791 259.128518 541.315479 259.836239 C 541.315479 260.538905 541.315479 261.170798 541.315479 261.726864 L 541.315479 283.974566 L 550.608447 283.974566 L 550.608447 236.986974 L 537.039697 236.986974 L 526.238525 272.913905 L 526.045557 272.913905 L 515.894385 236.986974 Z M 595.620947 240.389088 L 592.792432 247.966754 L 587.404541 251.257655 L 587.404541 255.40793 L 592.09165 255.40793 L 592.09165 272.721809 C 592.09165 275.037066 592.365869 276.968132 592.924463 278.509952 C 593.503369 280.031552 594.290479 281.249842 595.275635 282.169879 C 596.260791 283.069695 597.433838 283.711699 598.784619 284.075669 C 600.1354 284.43964 601.582666 284.61657 603.151807 284.61657 C 604.756494 284.61657 606.239307 284.45986 607.590088 284.141386 C 608.961182 283.843132 610.098682 283.448831 611.0229 282.973647 L 611.0229 275.67907 C 610.118994 276.002599 609.2354 276.270522 608.356885 276.487893 C 607.50376 276.70021 606.584619 276.806368 605.619775 276.806368 C 604.507666 276.806368 603.60376 276.472728 602.918213 275.810504 C 602.232666 275.143224 601.89751 274.11703 601.89751 272.721809 L 601.89751 255.40793 L 610.636963 255.40793 L 610.636963 248.047636 L 601.89751 248.047636 L 601.89751 240.389088 Z M 570.458838 247.365191 C 568.01626 247.365191 565.792041 247.764548 563.776025 248.558206 C 561.7854 249.351864 560.068994 250.529713 558.631885 252.11703 C 557.220166 253.67907 556.108057 255.645522 555.315869 258.006276 C 554.523682 260.361974 554.127588 263.111974 554.127588 266.261331 C 554.127588 269.365191 554.564307 272.08486 555.417432 274.400118 C 556.295947 276.695155 557.514697 278.600945 559.07876 280.122544 C 560.642822 281.623923 562.511572 282.736055 564.674854 283.489272 C 566.838135 284.237434 569.204541 284.61657 571.77915 284.61657 C 573.104541 284.61657 574.323291 284.566018 575.440479 284.45986 C 576.552588 284.373923 577.598682 284.227324 578.563525 284.015007 C 579.523291 283.797636 580.432275 283.529713 581.2854 283.23146 C 582.163916 282.90793 583.042432 282.528794 583.900635 282.078886 L 583.900635 274.49111 C 582.956104 274.961239 582.031885 275.380816 581.133057 275.744787 C 580.234229 276.088537 579.315088 276.37668 578.395947 276.614272 C 577.471729 276.851864 576.527197 277.033849 575.542041 277.165283 C 574.577197 277.271441 573.546338 277.316938 572.454541 277.316938 C 571.149463 277.316938 569.976416 277.124842 568.950635 276.715375 C 567.940088 276.310963 567.06665 275.724566 566.3354 274.976405 C 565.629541 274.202967 565.081104 273.267765 564.674854 272.170798 C 564.288916 271.058666 564.075635 269.820155 564.03501 268.45021 L 585.947119 268.45021 L 585.947119 263.688261 C 585.947119 261.07475 585.586572 258.764548 584.8604 256.747544 C 584.149463 254.715375 583.123682 252.996625 581.7729 251.601405 C 580.44751 250.211239 578.812354 249.164824 576.882666 248.457103 C 574.978369 247.729162 572.8354 247.365191 570.458838 247.365191 Z M 629.476807 247.365191 C 627.034229 247.365191 624.81001 247.764548 622.799072 248.558206 C 620.803369 249.351864 619.086963 250.529713 617.649854 252.11703 C 616.238135 253.67907 615.131104 255.645522 614.333838 258.006276 C 613.54165 260.361974 613.145557 263.111974 613.145557 266.261331 C 613.145557 269.365191 613.582275 272.08486 614.440479 274.400118 C 615.318994 276.695155 616.532666 278.600945 618.101807 280.122544 C 619.665869 281.623923 621.529541 282.736055 623.692822 283.489272 C 625.856104 284.237434 628.227588 284.61657 630.797119 284.61657 C 632.127588 284.61657 633.34126 284.566018 634.458447 284.45986 C 635.570557 284.373923 636.61665 284.227324 637.581494 284.015007 C 638.546338 283.797636 639.450244 283.529713 640.308447 283.23146 C 641.186963 282.90793 642.0604 282.528794 642.918604 282.078886 L 642.918604 274.49111 C 641.974072 274.961239 641.054932 275.380816 640.151025 275.744787 C 639.252197 276.088537 638.333057 276.37668 637.413916 276.614272 C 636.494775 276.851864 635.545166 277.033849 634.56001 277.165283 C 633.595166 277.271441 632.569385 277.316938 631.47251 277.316938 C 630.167432 277.316938 628.994385 277.124842 627.968604 276.715375 C 626.963135 276.310963 626.099854 275.724566 625.368604 274.976405 C 624.662744 274.202967 624.099072 273.267765 623.692822 272.170798 C 623.306885 271.058666 623.093604 269.820155 623.052979 268.45021 L 644.965088 268.45021 L 644.965088 263.688261 C 644.965088 261.07475 644.604541 258.764548 643.878369 256.747544 C 643.17251 254.715375 642.14165 252.996625 640.790869 251.601405 C 639.465479 250.211239 637.830322 249.164824 635.905713 248.457103 C 633.996338 247.729162 631.858447 247.365191 629.476807 247.365191 Z M 666.32876 247.365191 C 665.130322 247.365191 664.058838 247.516846 663.114307 247.815099 C 662.195166 248.093132 661.357275 248.497544 660.605713 249.03339 C 659.879541 249.54396 659.224463 250.185963 658.625244 250.93918 C 658.020947 251.687342 657.462354 252.511331 656.944385 253.436423 L 656.461963 253.436423 L 655.014697 248.047636 L 647.590479 248.047636 L 647.590479 283.974566 L 657.396338 283.974566 L 657.396338 265.685044 C 657.396338 263.99157 657.599463 262.566018 658.010791 261.40839 C 658.437354 260.230541 659.026416 259.285228 659.7729 258.577507 C 660.544775 257.849566 661.463916 257.328886 662.515088 257.005357 C 663.586572 256.681827 664.744385 256.520063 666.008838 256.520063 C 666.222119 256.520063 666.49126 256.535228 666.81626 256.555449 C 667.136182 256.555449 667.451025 256.580724 667.776025 256.621166 C 668.11626 256.641386 668.446338 256.681827 668.745947 256.722268 C 669.045557 256.767765 669.27915 256.808206 669.451807 256.853702 L 669.451807 247.64828 C 669.324854 247.607838 669.131885 247.582563 668.877979 247.557287 C 668.639307 247.516846 668.370166 247.476405 668.070557 247.456184 C 667.79126 247.415743 667.496729 247.390467 667.171729 247.390467 C 666.872119 247.370246 666.587744 247.365191 666.32876 247.365191 Z M 570.524854 254.341294 C 571.550635 254.341294 572.454541 254.53339 573.221338 254.917581 C 573.993213 255.306827 574.643213 255.832563 575.156104 256.520063 C 575.668994 257.182287 576.049854 257.975945 576.308838 258.901037 C 576.567822 259.821074 576.71001 260.827048 576.730322 261.91896 L 564.227979 261.91896 C 564.395557 259.305449 565.050635 257.394603 566.183057 256.171257 C 567.340869 254.952967 568.788135 254.341294 570.524854 254.341294 Z M 629.542822 254.341294 C 630.568604 254.341294 631.47251 254.53339 632.244385 254.917581 C 633.01626 255.306827 633.661182 255.832563 634.174072 256.520063 C 634.692041 257.182287 635.0729 257.975945 635.326807 258.901037 C 635.585791 259.821074 635.727979 260.827048 635.748291 261.91896 L 623.245947 261.91896 C 623.418604 259.305449 624.068604 257.394603 625.201025 256.171257 C 626.358838 254.952967 627.806104 254.341294 629.542822 254.341294 Z M 629.542822 254.341294 " transform="matrix(0.769231,0,0,0.772727,-333.529334,-163.704423)"/>
<path style=" stroke:none;fill-rule:nonzero;fill:rgb(30.196078%,30.196078%,30.196078%);fill-opacity:1;" d="M 189.011719 27.375 L 187.335938 27.375 L 187.335938 20.8125 L 185.347656 20.8125 L 185.347656 19.40625 L 191 19.40625 L 191 20.8125 L 189.011719 20.8125 L 189.011719 27.375 "/>
<path style=" stroke:none;fill-rule:nonzero;fill:rgb(30.196078%,30.196078%,30.196078%);fill-opacity:1;" d="M 195.410156 27.375 L 193.667969 21.121094 L 193.621094 21.121094 C 193.640625 21.457031 193.660156 21.78125 193.671875 22.09375 C 193.679688 22.226562 193.6875 22.367188 193.691406 22.507812 C 193.699219 22.648438 193.703125 22.789062 193.707031 22.925781 C 193.714844 23.066406 193.71875 23.199219 193.71875 23.324219 C 193.722656 23.453125 193.722656 23.566406 193.722656 23.667969 L 193.722656 27.375 L 192.21875 27.375 L 192.21875 19.40625 L 194.507812 19.40625 L 196.222656 25.5 L 196.257812 25.5 L 198.078125 19.40625 L 200.367188 19.40625 L 200.367188 27.375 L 198.800781 27.375 L 198.800781 23.601562 C 198.800781 23.507812 198.800781 23.402344 198.800781 23.28125 C 198.804688 23.160156 198.808594 23.035156 198.8125 22.898438 C 198.816406 22.765625 198.820312 22.628906 198.820312 22.492188 C 198.828125 22.351562 198.835938 22.21875 198.839844 22.085938 C 198.851562 21.78125 198.867188 21.464844 198.875 21.132812 L 198.832031 21.132812 L 196.957031 27.375 L 195.410156 27.375 "/>
<path style=" stroke:none;fill-rule:nonzero;fill:rgb(82.352942%,12.941177%,15.686275%);fill-opacity:1;" d="M 41 13.832031 L 46.414062 0.835938 L 47.457031 0.835938 L 52.871094 13.832031 L 51.507812 13.832031 L 49.828125 9.773438 L 44.007812 9.773438 L 42.351562 13.832031 Z M 46.941406 2.335938 L 44.285156 8.757812 L 49.53125 8.757812 Z M 46.941406 2.335938 "/>
<path style=" stroke:none;fill-rule:nonzero;fill:rgb(82.352942%,12.941177%,15.686275%);fill-opacity:1;" d="M 54.253906 13.832031 L 54.253906 0.835938 L 59.613281 0.835938 C 61.832031 0.835938 63.4375 2.898438 63.4375 4.917969 C 63.4375 7.039062 61.941406 9.035156 59.722656 9.035156 L 55.519531 9.035156 L 55.519531 13.832031 Z M 55.519531 7.898438 L 59.65625 7.898438 C 61.183594 7.898438 62.171875 6.484375 62.171875 4.917969 C 62.171875 3.285156 60.976562 1.972656 59.546875 1.972656 L 55.519531 1.972656 Z M 55.519531 7.898438 "/>
<path style=" stroke:none;fill-rule:nonzero;fill:rgb(82.352942%,12.941177%,15.686275%);fill-opacity:1;" d="M 62.734375 13.832031 L 68.148438 0.835938 L 69.191406 0.835938 L 74.605469 13.832031 L 73.222656 13.832031 L 71.539062 9.773438 L 65.730469 9.773438 L 64.074219 13.832031 Z M 68.675781 2.335938 L 66.015625 8.757812 L 71.265625 8.757812 Z M 68.675781 2.335938 "/>
<path style=" stroke:none;fill-rule:nonzero;fill:rgb(82.352942%,12.941177%,15.686275%);fill-opacity:1;" d="M 80.710938 0.761719 C 83.007812 0.761719 84.6875 1.929688 85.488281 3.59375 L 84.464844 4.214844 C 83.644531 2.492188 82.039062 1.90625 80.644531 1.90625 C 77.546875 1.90625 75.855469 4.6875 75.855469 7.300781 C 75.855469 10.171875 77.953125 12.773438 80.699219 12.773438 C 82.160156 12.773438 83.875 12.046875 84.6875 10.359375 L 85.742188 10.910156 C 84.90625 12.851562 82.609375 13.933594 80.621094 13.933594 C 77.074219 13.933594 74.570312 10.523438 74.570312 7.234375 C 74.570312 4.113281 76.8125 0.761719 80.710938 0.761719 Z M 80.710938 0.761719 "/>
<path style=" stroke:none;fill-rule:nonzero;fill:rgb(82.352942%,12.941177%,15.686275%);fill-opacity:1;" d="M 97.722656 0.835938 L 97.722656 13.832031 L 96.449219 13.832031 L 96.449219 7.753906 L 88.78125 7.753906 L 88.78125 13.832031 L 87.53125 13.832031 L 87.53125 0.835938 L 88.78125 0.835938 L 88.78125 6.617188 L 96.449219 6.617188 L 96.449219 0.835938 Z M 97.722656 0.835938 "/>
<path style=" stroke:none;fill-rule:nonzero;fill:rgb(82.352942%,12.941177%,15.686275%);fill-opacity:1;" d="M 109.328125 12.695312 L 109.328125 13.832031 L 100.644531 13.832031 L 100.644531 0.835938 L 109.164062 0.835938 L 109.164062 1.972656 L 101.894531 1.972656 L 101.894531 6.664062 L 108.230469 6.664062 L 108.230469 7.742188 L 101.894531 7.742188 L 101.894531 12.695312 Z M 109.328125 12.695312 "/>
</g>
</svg>
