<?xml version="1.0" encoding="UTF-8"?>
<svg xmlns="http://www.w3.org/2000/svg" xmlns:xlink="http://www.w3.org/1999/xlink" width="200px" height="39px" viewBox="0 0 200 39" version="1.1">
<defs>
<clipPath id="clip1">
  <path d="M 46 2 L 199.960938 2 L 199.960938 31 L 46 31 Z M 46 2 "/>
</clipPath>
</defs>
<g id="surface1">
<path style=" stroke:none;fill-rule:nonzero;fill:rgb(0%,67.450982%,41.176471%);fill-opacity:1;" d="M 27.148438 13.496094 L 27.148438 25.503906 L 16.804688 31.496094 L 16.804688 39 L 33.617188 29.25 L 33.617188 9.75 Z M 27.148438 13.496094 "/>
<path style=" stroke:none;fill-rule:nonzero;fill:rgb(10.980392%,90.588236%,51.372552%);fill-opacity:1;" d="M 16.804688 7.503906 L 27.148438 13.496094 L 33.617188 9.75 L 16.804688 0 L 0 9.75 L 6.46875 13.496094 Z M 16.804688 7.503906 "/>
<path style=" stroke:none;fill-rule:nonzero;fill:rgb(11.372549%,14.509805%,17.254902%);fill-opacity:1;" d="M 10.34375 23.246094 L 10.34375 35.253906 L 16.804688 39 L 16.804688 19.5 L 0 9.75 L 0 17.253906 Z M 10.34375 23.246094 "/>
<g clip-path="url(#clip1)" clip-rule="nonzero">
<path style=" stroke:none;fill-rule:evenodd;fill:rgb(11.372549%,14.509805%,17.254902%);fill-opacity:1;" d="M 64.296875 17.949219 L 64.296875 29.621094 L 59.539062 29.621094 L 59.539062 18.332031 C 59.539062 15.84375 57.824219 14.125 55.34375 14.125 C 52.878906 14.125 51.164062 15.855469 51.164062 18.332031 L 51.164062 29.621094 L 46.40625 29.621094 L 46.40625 10.109375 L 50.78125 10.109375 L 51.164062 12.019531 L 51.355469 12.019531 C 51.355469 12.019531 53.070312 9.722656 56.6875 9.722656 C 61.0625 9.722656 64.296875 12.96875 64.296875 17.949219 Z M 111.265625 10.109375 L 116.214844 10.109375 L 111.265625 29.621094 L 105.472656 29.621094 L 102.238281 17 L 101.957031 17 L 98.722656 29.621094 L 92.929688 29.621094 L 87.980469 10.109375 L 92.929688 10.109375 L 96.164062 22.925781 L 96.433594 22.925781 L 99.679688 10.109375 L 104.515625 10.109375 L 107.761719 22.925781 L 108.03125 22.925781 Z M 132.300781 10.570312 C 132.890625 10.277344 133.554688 10.109375 134.207031 10.109375 L 137.046875 10.109375 L 137.046875 14.714844 L 134.605469 14.714844 C 132.121094 14.714844 130.984375 15.855469 130.984375 18.34375 L 130.984375 29.636719 L 126.226562 29.636719 L 126.226562 10.109375 L 130.21875 10.109375 L 130.601562 11.828125 L 130.792969 11.828125 C 131.1875 11.300781 131.714844 10.867188 132.300781 10.570312 Z M 157.097656 19.5 C 157.109375 20.140625 157.046875 20.78125 156.90625 21.410156 L 142.441406 21.410156 C 142.824219 24.078125 144.808594 25.824219 147.582031 25.824219 C 149.960938 25.824219 151.699219 24.296875 152.136719 23.503906 L 156.507812 25.066406 C 155.292969 27.160156 152.390625 30.007812 147.582031 30.007812 C 141.636719 30.007812 137.683594 25.800781 137.683594 19.871094 C 137.683594 13.933594 141.867188 9.722656 147.582031 9.722656 C 152.914062 9.722656 157.097656 13.933594 157.097656 19.5 Z M 152.339844 18.152344 C 151.957031 15.664062 150.242188 13.738281 147.582031 13.738281 C 144.730469 13.738281 143.019531 15.664062 142.441406 18.152344 Z M 86.765625 19.5 C 86.777344 20.140625 86.714844 20.78125 86.574219 21.410156 L 72.097656 21.410156 C 72.480469 24.078125 74.464844 25.824219 77.25 25.824219 C 79.628906 25.824219 81.367188 24.296875 81.804688 23.503906 L 86.164062 25.066406 C 84.960938 27.160156 82.058594 30.007812 77.25 30.007812 C 71.292969 30.007812 67.339844 25.800781 67.339844 19.871094 C 67.339844 13.933594 71.535156 9.722656 77.25 9.722656 C 82.582031 9.722656 86.765625 13.933594 86.765625 19.5 Z M 82.007812 18.152344 C 81.625 15.664062 79.910156 13.738281 77.25 13.738281 C 74.386719 13.738281 72.671875 15.664062 72.097656 18.152344 Z M 168.988281 2.398438 L 173.746094 2.398438 L 173.746094 7.183594 L 168.988281 7.183594 Z M 191.265625 22.359375 L 195.601562 23.898438 C 194.578125 26.761719 192.019531 30.007812 186.894531 30.007812 C 181.175781 30.007812 176.980469 25.800781 176.980469 19.871094 C 176.980469 13.933594 181.175781 9.722656 186.894531 9.722656 C 191.96875 9.722656 194.539062 12.917969 195.574219 15.652344 L 191.265625 17.191406 C 190.882812 16.035156 189.746094 14.125 186.894531 14.125 C 184.027344 14.125 181.75 16.421875 181.75 19.871094 C 181.75 23.308594 184.027344 25.605469 186.894531 25.605469 C 189.746094 25.605469 190.882812 23.695312 191.265625 22.359375 Z M 157.632812 2.398438 L 165.101562 2.398438 L 165.101562 29.621094 L 160.332031 29.621094 L 160.332031 6.660156 L 157.632812 6.660156 Z M 168.988281 10.097656 L 173.746094 10.097656 L 173.746094 29.621094 L 168.988281 29.621094 Z M 198.863281 26.003906 C 199.078125 26.09375 199.285156 26.222656 199.449219 26.402344 C 199.617188 26.570312 199.757812 26.773438 199.847656 27.003906 C 199.9375 27.234375 199.972656 27.464844 199.960938 27.710938 C 199.960938 28.082031 199.859375 28.441406 199.65625 28.738281 C 199.449219 29.042969 199.15625 29.277344 198.824219 29.417969 C 198.492188 29.558594 198.121094 29.597656 197.761719 29.519531 C 197.402344 29.441406 197.070312 29.261719 196.816406 29.007812 C 196.558594 28.75 196.394531 28.417969 196.316406 28.058594 C 196.253906 27.699219 196.292969 27.324219 196.433594 26.992188 C 196.585938 26.644531 196.816406 26.363281 197.121094 26.171875 C 197.429688 25.964844 197.789062 25.863281 198.160156 25.863281 C 198.390625 25.863281 198.632812 25.914062 198.863281 26.003906 Z M 198.160156 29.261719 C 198.363281 29.277344 198.554688 29.238281 198.746094 29.160156 C 198.9375 29.082031 199.105469 28.96875 199.246094 28.828125 C 199.398438 28.671875 199.5 28.507812 199.578125 28.3125 C 199.65625 28.121094 199.691406 27.914062 199.679688 27.710938 C 199.679688 27.402344 199.589844 27.09375 199.425781 26.839844 C 199.246094 26.582031 199.003906 26.390625 198.722656 26.261719 C 198.425781 26.144531 198.121094 26.121094 197.8125 26.183594 C 197.507812 26.246094 197.238281 26.402344 197.019531 26.621094 C 196.804688 26.839844 196.648438 27.121094 196.597656 27.429688 C 196.546875 27.734375 196.574219 28.042969 196.699219 28.328125 C 196.816406 28.621094 197.019531 28.851562 197.277344 29.03125 C 197.542969 29.199219 197.839844 29.277344 198.160156 29.277344 Z M 198.757812 27.800781 C 198.644531 27.914062 198.492188 27.980469 198.324219 27.980469 L 198.988281 28.648438 L 198.632812 28.648438 L 197.980469 27.980469 L 197.722656 27.980469 L 197.722656 28.648438 L 197.441406 28.648438 L 197.441406 26.722656 L 198.25 26.722656 C 198.34375 26.722656 198.429688 26.734375 198.515625 26.761719 C 198.601562 26.796875 198.675781 26.84375 198.734375 26.902344 C 198.800781 26.960938 198.851562 27.03125 198.886719 27.109375 C 198.921875 27.191406 198.9375 27.277344 198.9375 27.363281 C 198.9375 27.53125 198.875 27.683594 198.757812 27.800781 Z M 198.25 27.699219 C 198.53125 27.699219 198.671875 27.570312 198.671875 27.363281 C 198.660156 27.3125 198.648438 27.265625 198.632812 27.222656 C 198.605469 27.171875 198.578125 27.128906 198.542969 27.09375 C 198.5 27.058594 198.453125 27.035156 198.402344 27.019531 C 198.359375 27.007812 198.308594 27.003906 198.25 27.003906 L 197.722656 27.003906 L 197.722656 27.699219 Z M 198.25 27.699219 "/>
</g>
</g>
</svg>
