<?xml version="1.0" encoding="UTF-8"?>
<svg xmlns="http://www.w3.org/2000/svg" xmlns:xlink="http://www.w3.org/1999/xlink" width="200px" height="px" viewBox="0 0 200 66" version="1.1">
<g id="surface1">
<path style=" stroke:none;fill-rule:evenodd;fill:rgb(0%,0%,0%);fill-opacity:1;" d="M 180.253906 49.292969 C 172.425781 49.292969 165.226562 42.71875 165.226562 33.226562 C 165.226562 23.734375 172.414062 17.160156 180.253906 17.160156 C 184.640625 17.160156 188.464844 19.105469 190.492188 22.320312 L 190.492188 17.734375 L 196.464844 17.734375 L 196.464844 40.09375 C 196.464844 42.1875 196.921875 43.09375 198.773438 43.09375 L 199.894531 43.09375 L 199.894531 48.746094 L 197.292969 48.746094 C 194.027344 48.746094 191.453125 47.441406 190.988281 43.878906 C 188.574219 47.546875 184.746094 49.308594 180.253906 49.308594 Z M 190.546875 33.226562 C 190.546875 27.652344 186.320312 23.148438 181.09375 23.148438 C 175.851562 23.148438 171.625 27.652344 171.625 33.226562 C 171.625 38.800781 175.851562 43.308594 181.09375 43.308594 C 186.320312 43.308594 190.546875 38.800781 190.546875 33.226562 Z M 149.519531 7.320312 L 155.761719 7.320312 L 155.761719 17.734375 L 163.707031 17.734375 L 163.707031 23.386719 L 155.761719 23.386719 L 155.761719 40.09375 C 155.761719 42.253906 156.214844 43.09375 158.414062 43.09375 L 163.707031 43.09375 L 163.707031 48.746094 L 156.441406 48.746094 C 152.667969 48.746094 149.519531 46.640625 149.519531 41.558594 Z M 121.09375 7.320312 L 127.332031 7.320312 L 127.332031 29.679688 L 129.253906 29.679688 L 137.773438 17.71875 L 144.800781 17.71875 L 134.386719 31.867188 L 147.945312 48.734375 L 140.054688 48.734375 L 129.425781 35.441406 L 127.332031 35.441406 L 127.332031 48.734375 L 121.09375 48.734375 Z M 100.828125 49.292969 C 92.027344 49.292969 84.90625 42.121094 84.90625 33.226562 C 84.90625 24.347656 92.027344 17.171875 100.828125 17.171875 C 109.640625 17.171875 116.761719 24.347656 116.761719 33.226562 C 116.761719 42.121094 109.640625 49.292969 100.828125 49.292969 Z M 110.347656 33.226562 C 110.347656 27.652344 106.09375 23.148438 100.828125 23.148438 C 95.574219 23.148438 91.320312 27.652344 91.320312 33.226562 C 91.320312 38.8125 95.574219 43.320312 100.828125 43.320312 C 106.09375 43.320312 110.347656 38.8125 110.347656 33.226562 Z M 110.347656 33.226562 "/>
<path style=" stroke:none;fill-rule:evenodd;fill:rgb(0%,0%,0%);fill-opacity:1;" d="M 36.238281 0.480469 L 34.878906 17.160156 C 34.238281 17.09375 33.601562 17.054688 32.945312 17.054688 C 32.121094 17.054688 31.320312 17.105469 30.535156 17.238281 L 29.761719 9.148438 C 29.746094 8.894531 29.945312 8.667969 30.199219 8.667969 L 31.574219 8.667969 L 30.921875 0.492188 C 30.894531 0.238281 31.09375 0.0117188 31.332031 0.0117188 L 35.8125 0.0117188 C 36.078125 0.0117188 36.28125 0.238281 36.238281 0.480469 Z M 29.375 17.441406 C 27.933594 17.761719 26.558594 18.292969 25.292969 18.988281 L 21.800781 11.652344 C 21.691406 11.441406 21.800781 11.160156 22.039062 11.066406 L 23.332031 10.601562 L 19.921875 3.132812 C 19.800781 2.90625 19.921875 2.640625 20.148438 2.546875 L 24.359375 1 C 24.601562 0.921875 24.851562 1.066406 24.933594 1.292969 C 24.945312 1.292969 29.375 17.441406 29.375 17.441406 Z M 14.601562 5.945312 L 24.292969 19.601562 C 23.066406 20.398438 21.945312 21.347656 21 22.453125 L 15.1875 16.746094 C 15.011719 16.558594 15.027344 16.265625 15.214844 16.105469 L 16.265625 15.226562 L 10.507812 9.386719 C 10.320312 9.199219 10.347656 8.90625 10.546875 8.746094 L 13.960938 5.867188 C 14.160156 5.707031 14.441406 5.746094 14.585938 5.945312 Z M 20.253906 23.359375 C 19.375 24.519531 18.667969 25.800781 18.132812 27.171875 L 10.734375 23.785156 C 10.507812 23.691406 10.414062 23.398438 10.535156 23.1875 L 11.226562 21.988281 L 3.800781 18.480469 C 3.585938 18.375 3.492188 18.09375 3.613281 17.878906 L 5.851562 14 C 5.988281 13.773438 6.265625 13.707031 6.480469 13.851562 Z M 0.988281 24.386719 C 1.027344 24.121094 1.28125 23.972656 1.519531 24.039062 L 17.71875 28.265625 C 17.308594 29.625 17.066406 31.078125 17.027344 32.574219 L 8.921875 31.921875 C 8.667969 31.90625 8.480469 31.667969 8.535156 31.414062 L 8.773438 30.054688 L 0.585938 29.28125 C 0.332031 29.265625 0.171875 29.027344 0.199219 28.773438 L 0.972656 24.359375 Z M 0.359375 35.332031 L 17.039062 33.800781 C 17.105469 35.28125 17.398438 36.71875 17.867188 38.078125 L 10.027344 40.238281 C 9.785156 40.292969 9.535156 40.148438 9.492188 39.894531 L 9.265625 38.535156 L 1.320312 40.601562 C 1.078125 40.652344 0.828125 40.507812 0.785156 40.253906 L 0 35.839844 C -0.0390625 35.585938 0.132812 35.347656 0.386719 35.332031 Z M 2.972656 46.933594 C 2.839844 46.707031 2.933594 46.441406 3.160156 46.332031 L 18.28125 39.160156 C 18.839844 40.507812 19.613281 41.773438 20.535156 42.90625 L 13.90625 47.625 C 13.707031 47.773438 13.414062 47.71875 13.28125 47.492188 L 12.585938 46.292969 L 5.828125 50.960938 C 5.625 51.105469 5.332031 51.027344 5.214844 50.8125 C 5.214844 50.8125 2.960938 46.933594 2.972656 46.933594 Z M 24.707031 46.546875 L 20.09375 53.238281 C 19.945312 53.464844 19.652344 53.492188 19.453125 53.332031 L 18.386719 52.441406 L 13.625 59.132812 C 13.480469 59.332031 13.199219 59.375 13 59.214844 L 9.558594 56.332031 C 9.359375 56.171875 9.347656 55.878906 9.535156 55.691406 L 21.292969 43.785156 C 22.308594 44.839844 23.453125 45.773438 24.707031 46.546875 Z M 18.972656 62.90625 C 18.734375 62.8125 18.625 62.535156 18.734375 62.320312 L 25.707031 47.09375 C 26.988281 47.761719 28.375 48.253906 29.828125 48.519531 L 27.773438 56.386719 C 27.71875 56.625 27.441406 56.773438 27.214844 56.679688 L 25.90625 56.214844 L 23.734375 64.132812 C 23.652344 64.375 23.398438 64.519531 23.160156 64.425781 L 18.945312 62.878906 Z M 32.921875 48.867188 C 33.746094 48.867188 34.558594 48.800781 35.347656 48.679688 L 36.105469 56.761719 C 36.132812 57.027344 35.933594 57.238281 35.667969 57.238281 L 34.292969 57.238281 L 34.960938 65.414062 C 35 65.679688 34.800781 65.894531 34.535156 65.894531 L 30.054688 65.894531 C 29.8125 65.894531 29.613281 65.679688 29.625 65.414062 L 30.988281 48.734375 C 31.625 48.828125 32.265625 48.867188 32.921875 48.867188 Z M 40.132812 18.761719 C 38.851562 18.121094 37.480469 17.625 36.011719 17.332031 L 38.066406 9.464844 C 38.148438 9.226562 38.398438 9.078125 38.640625 9.171875 L 39.933594 9.652344 L 42.121094 1.734375 C 42.1875 1.492188 42.441406 1.347656 42.679688 1.441406 L 46.894531 2.972656 C 47.132812 3.066406 47.238281 3.320312 47.132812 3.558594 Z M 56.308594 10.199219 L 44.546875 22.105469 C 43.546875 21.039062 42.414062 20.105469 41.160156 19.347656 L 45.773438 12.652344 C 45.921875 12.441406 46.199219 12.386719 46.414062 12.558594 L 47.464844 13.453125 L 52.226562 6.761719 C 52.375 6.558594 52.667969 6.519531 52.851562 6.679688 L 56.292969 9.558594 C 56.492188 9.71875 56.492188 10.011719 56.308594 10.199219 Z M 62.667969 19.585938 L 47.546875 26.761719 C 46.960938 25.398438 46.199219 24.132812 45.292969 23 L 51.921875 18.28125 C 52.121094 18.121094 52.414062 18.1875 52.535156 18.414062 L 53.238281 19.601562 L 59.988281 14.933594 C 60.1875 14.8125 60.480469 14.867188 60.613281 15.078125 L 62.867188 18.960938 C 62.988281 19.171875 62.921875 19.453125 62.679688 19.558594 Z M 65.066406 25.640625 L 65.828125 30.054688 C 65.867188 30.308594 65.707031 30.535156 65.453125 30.574219 L 48.773438 32.121094 C 48.707031 30.625 48.414062 29.199219 47.945312 27.839844 L 55.785156 25.679688 C 56.027344 25.613281 56.28125 25.773438 56.320312 26.027344 L 56.546875 27.386719 L 64.492188 25.320312 C 64.734375 25.265625 64.988281 25.414062 65.027344 25.667969 Z M 64.292969 41.8125 L 48.09375 37.585938 C 48.519531 36.214844 48.761719 34.773438 48.800781 33.265625 L 56.90625 33.921875 C 57.160156 33.960938 57.320312 34.1875 57.292969 34.441406 L 57.054688 35.785156 L 65.226562 36.558594 C 65.492188 36.601562 65.652344 36.8125 65.613281 37.078125 L 64.851562 41.480469 C 64.8125 41.734375 64.558594 41.878906 64.320312 41.828125 Z M 59.988281 51.894531 C 59.867188 52.121094 59.574219 52.171875 59.359375 52.039062 L 45.585938 42.535156 C 46.464844 41.375 47.171875 40.09375 47.707031 38.71875 L 55.105469 42.105469 C 55.332031 42.214844 55.425781 42.492188 55.308594 42.71875 L 54.613281 43.90625 L 62.039062 47.414062 C 62.253906 47.519531 62.347656 47.800781 62.226562 48.011719 Z M 41.535156 46.28125 C 42.761719 45.492188 43.851562 44.519531 44.828125 43.425781 L 50.625 49.132812 C 50.8125 49.320312 50.8125 49.613281 50.613281 49.773438 L 49.546875 50.652344 L 55.320312 56.492188 C 55.480469 56.679688 55.480469 56.972656 55.28125 57.132812 L 51.851562 60 C 51.667969 60.171875 51.375 60.132812 51.226562 59.933594 L 41.546875 46.28125 Z M 41.464844 64.867188 C 41.226562 64.960938 40.972656 64.8125 40.894531 64.574219 L 36.464844 48.441406 C 37.90625 48.105469 39.28125 47.585938 40.546875 46.878906 L 44.039062 54.226562 C 44.160156 54.464844 44.039062 54.734375 43.800781 54.8125 L 42.507812 55.28125 L 45.933594 62.746094 C 46.039062 62.988281 45.933594 63.238281 45.691406 63.332031 L 41.480469 64.867188 Z M 41.464844 64.867188 "/>
</g>
</svg>
