<?xml version="1.0" encoding="UTF-8"?>
<svg xmlns="http://www.w3.org/2000/svg" xmlns:xlink="http://www.w3.org/1999/xlink" width="200px" height="px" viewBox="0 0 200 200" version="1.1">
<g id="surface1">
<path style=" stroke:none;fill-rule:nonzero;fill:rgb(100%,42.352942%,21.568628%);fill-opacity:1;" d="M 199.183594 112.699219 C 206.179688 57.90625 167.488281 7.816406 112.796875 0.816406 C 58.109375 -6.179688 7.816406 32.511719 0.816406 87.203125 C -6.179688 141.890625 32.511719 192.082031 87.203125 199.183594 C 141.992188 206.179688 192.082031 167.488281 199.183594 112.699219 Z M 199.183594 112.699219 "/>
<path style=" stroke:none;fill-rule:nonzero;fill:rgb(100%,100%,100%);fill-opacity:1;" d="M 136.09375 64.207031 L 93.902344 106.398438 L 82.003906 94.5 C 123.496094 53.007812 127.59375 56.609375 136.09375 64.207031 Z M 136.09375 64.207031 "/>
<path style=" stroke:none;fill-rule:nonzero;fill:rgb(100%,42.352942%,21.568628%);fill-opacity:1;" d="M 93.902344 107.398438 C 93.601562 107.398438 93.402344 107.296875 93.203125 107.097656 L 81.203125 95.199219 C 81.011719 95.019531 80.902344 94.765625 80.902344 94.5 C 80.902344 94.234375 81.011719 93.984375 81.203125 93.800781 C 123.394531 51.609375 127.796875 55.609375 136.695312 63.605469 C 136.894531 63.804688 136.992188 64.007812 136.992188 64.304688 C 136.992188 64.605469 136.894531 64.804688 136.695312 65.007812 L 94.5 107.097656 C 94.402344 107.296875 94.101562 107.398438 93.902344 107.398438 Z M 83.402344 94.5 L 93.902344 105 L 134.59375 64.304688 C 127.195312 57.707031 122.195312 55.707031 83.402344 94.5 Z M 83.402344 94.5 "/>
<path style=" stroke:none;fill-rule:nonzero;fill:rgb(100%,100%,100%);fill-opacity:1;" d="M 106 118.496094 L 94.5 107 L 136.695312 64.804688 C 147.992188 76.203125 131.09375 94.699219 106 118.496094 Z M 106 118.496094 "/>
<path style=" stroke:none;fill-rule:nonzero;fill:rgb(100%,42.352942%,21.568628%);fill-opacity:1;" d="M 106 119.496094 C 105.699219 119.496094 105.5 119.398438 105.300781 119.195312 L 93.800781 107.699219 C 93.601562 107.5 93.601562 107.296875 93.601562 107 C 93.601562 106.699219 93.699219 106.5 93.902344 106.300781 L 136.09375 64.105469 C 136.277344 63.914062 136.527344 63.804688 136.792969 63.804688 C 137.058594 63.804688 137.3125 63.914062 137.492188 64.105469 C 140.074219 66.496094 141.496094 69.886719 141.390625 73.40625 C 141.191406 84.503906 128.59375 98.601562 106.796875 119.195312 C 106.5 119.398438 106.199219 119.496094 106 119.496094 Z M 95.902344 107 C 102.300781 113.496094 105 116.097656 106 117.097656 C 122.796875 101.101562 139.09375 84.703125 139.191406 73.40625 C 139.292969 70.804688 138.292969 68.207031 136.59375 66.207031 Z M 95.902344 107 "/>
<path style=" stroke:none;fill-rule:nonzero;fill:rgb(100%,100%,100%);fill-opacity:1;" d="M 82.203125 94.800781 L 90.703125 103.300781 C 90.902344 103.5 90.902344 103.699219 90.703125 103.898438 C 90.601562 104 90.601562 104 90.5 104 L 72.90625 107.796875 C 72.003906 107.898438 71.207031 107.296875 71.003906 106.398438 C 70.90625 105.898438 71.105469 105.398438 71.40625 105.097656 L 81.601562 94.902344 C 81.804688 94.699219 82.101562 94.601562 82.203125 94.800781 Z M 82.203125 94.800781 "/>
<path style=" stroke:none;fill-rule:nonzero;fill:rgb(100%,42.352942%,21.568628%);fill-opacity:1;" d="M 72.605469 108.796875 C 71.105469 108.796875 70.003906 107.597656 70.003906 106.097656 C 70.003906 105.398438 70.304688 104.699219 70.804688 104.199219 L 81.003906 94 C 81.601562 93.5 82.402344 93.5 83.003906 94 L 91.5 102.5 C 92.101562 103 92.101562 103.898438 91.5 104.5 C 91.300781 104.699219 91.101562 104.800781 90.800781 104.898438 L 73.203125 108.699219 C 73.003906 108.699219 72.804688 108.796875 72.605469 108.796875 Z M 81.902344 95.898438 L 72.105469 105.699219 C 71.90625 105.898438 71.804688 106.199219 72.003906 106.5 C 72.105469 106.796875 72.40625 106.898438 72.703125 106.796875 L 89.203125 103.199219 L 81.902344 95.902344 Z M 81.902344 95.898438 "/>
<path style=" stroke:none;fill-rule:nonzero;fill:rgb(100%,100%,100%);fill-opacity:1;" d="M 158.390625 40.8125 C 151.992188 34.613281 141.691406 34.8125 135.492188 41.3125 C 129.292969 47.808594 129.496094 58.007812 135.992188 64.207031 C 141.269531 69.304688 149.316406 70.207031 155.589844 66.40625 L 144.191406 55.007812 Z M 158.390625 40.8125 "/>
<path style=" stroke:none;fill-rule:nonzero;fill:rgb(100%,42.352942%,21.568628%);fill-opacity:1;" d="M 147.191406 69.707031 C 137.691406 69.707031 129.996094 62.007812 129.996094 52.507812 C 129.996094 43.011719 137.691406 35.3125 147.191406 35.3125 C 151.589844 35.3125 155.890625 37.011719 159.089844 40.109375 C 159.289062 40.3125 159.390625 40.511719 159.390625 40.8125 C 159.390625 41.109375 159.289062 41.3125 159.089844 41.511719 L 145.589844 55.007812 L 156.191406 65.605469 C 156.589844 66.007812 156.589844 66.605469 156.191406 67.007812 L 155.988281 67.207031 C 153.390625 68.804688 150.289062 69.707031 147.191406 69.707031 Z M 147.191406 37.410156 C 138.792969 37.410156 131.996094 44.210938 132.09375 52.609375 C 132.09375 61.007812 138.894531 67.804688 147.292969 67.707031 C 149.589844 67.707031 151.890625 67.207031 153.992188 66.105469 L 143.492188 55.707031 C 143.292969 55.507812 143.191406 55.308594 143.191406 55.007812 C 143.191406 54.707031 143.292969 54.507812 143.492188 54.308594 L 156.890625 40.910156 C 154.191406 38.609375 150.789062 37.410156 147.191406 37.410156 Z M 147.191406 37.410156 "/>
<path style=" stroke:none;fill-rule:nonzero;fill:rgb(100%,100%,100%);fill-opacity:1;" d="M 158.6875 41.109375 L 158.488281 40.910156 L 144.191406 55.007812 L 155.488281 66.304688 C 156.589844 65.605469 157.691406 64.804688 158.589844 63.90625 C 161.648438 60.910156 163.382812 56.8125 163.398438 52.53125 C 163.417969 48.246094 161.722656 44.132812 158.6875 41.109375 Z M 158.6875 41.109375 "/>
<path style=" stroke:none;fill-rule:nonzero;fill:rgb(100%,42.352942%,21.568628%);fill-opacity:1;" d="M 155.589844 67.40625 C 155.289062 67.40625 155.089844 67.304688 154.890625 67.105469 L 143.492188 55.707031 C 143.292969 55.507812 143.191406 55.308594 143.191406 55.007812 C 143.191406 54.707031 143.292969 54.507812 143.492188 54.308594 L 157.691406 40.109375 C 157.871094 39.917969 158.125 39.8125 158.390625 39.8125 C 158.652344 39.8125 158.90625 39.917969 159.089844 40.109375 L 159.390625 40.3125 C 166.089844 47.007812 166.089844 57.808594 159.488281 64.605469 C 158.488281 65.605469 157.390625 66.507812 156.191406 67.207031 C 155.890625 67.304688 155.691406 67.40625 155.589844 67.40625 Z M 145.589844 55.007812 L 155.691406 65.105469 C 156.488281 64.605469 157.289062 63.90625 157.890625 63.304688 C 163.589844 57.609375 163.886719 48.308594 158.390625 42.308594 Z M 145.589844 55.007812 "/>
<path style=" stroke:none;fill-rule:nonzero;fill:rgb(100%,100%,100%);fill-opacity:1;" d="M 137.792969 66.007812 C 135.390625 63.605469 131.496094 63.605469 129.09375 66.007812 L 91.402344 103.699219 L 97.699219 110 L 137.59375 75.003906 C 140.191406 72.804688 140.394531 68.90625 138.191406 66.304688 C 137.992188 66.207031 137.894531 66.105469 137.792969 66.007812 Z M 137.792969 66.007812 "/>
<path style=" stroke:none;fill-rule:nonzero;fill:rgb(100%,42.352942%,21.568628%);fill-opacity:1;" d="M 97.601562 110.996094 C 97.300781 110.996094 97.101562 110.898438 96.902344 110.699219 L 90.601562 104.398438 C 90.410156 104.21875 90.300781 103.964844 90.300781 103.699219 C 90.300781 103.433594 90.410156 103.179688 90.601562 103 L 128.292969 65.304688 C 129.632812 63.960938 131.449219 63.207031 133.34375 63.207031 C 135.238281 63.207031 137.054688 63.960938 138.394531 65.304688 C 139.738281 66.644531 140.492188 68.460938 140.492188 70.355469 C 140.492188 72.25 139.738281 74.066406 138.394531 75.40625 L 138.09375 75.703125 L 98.199219 110.699219 C 98.101562 110.898438 97.898438 110.996094 97.601562 110.996094 Z M 92.800781 103.699219 L 97.699219 108.597656 L 136.894531 74.203125 C 139.09375 72.40625 139.292969 69.105469 137.492188 66.90625 C 135.695312 64.707031 132.394531 64.507812 130.195312 66.304688 C 130.09375 66.40625 129.996094 66.507812 129.792969 66.605469 Z M 92.800781 103.699219 "/>
<path style=" stroke:none;fill-rule:nonzero;fill:rgb(100%,100%,100%);fill-opacity:1;" d="M 62.507812 146.589844 C 62.105469 146.792969 61.90625 147.191406 62.007812 147.589844 L 63.707031 154.789062 C 64.105469 155.789062 63.507812 156.988281 62.40625 157.289062 C 61.605469 157.589844 60.707031 157.289062 60.207031 156.691406 L 49.210938 145.792969 L 85.101562 109.898438 L 97.5 110.097656 L 105.898438 118.496094 C 103.898438 120.195312 91.800781 131.894531 62.507812 146.589844 Z M 62.507812 146.589844 "/>
<path style=" stroke:none;fill-rule:nonzero;fill:rgb(100%,42.352942%,21.568628%);fill-opacity:1;" d="M 61.707031 158.289062 C 60.90625 158.289062 60.105469 157.988281 59.605469 157.390625 L 48.707031 146.492188 C 48.507812 146.292969 48.410156 146.089844 48.410156 145.792969 C 48.410156 145.492188 48.507812 145.292969 48.710938 145.09375 L 84.601562 109.199219 C 84.804688 109 85.101562 108.898438 85.300781 108.898438 L 97.699219 109.097656 C 98 109.097656 98.199219 109.199219 98.398438 109.398438 L 106.796875 117.796875 C 107 117.996094 107.097656 118.296875 107.097656 118.597656 C 107.097656 118.898438 107 119.097656 106.699219 119.296875 L 106 119.894531 C 95.402344 129.195312 81.003906 138.492188 63.105469 147.390625 L 64.804688 154.488281 C 65.105469 155.789062 64.507812 157.191406 63.304688 157.890625 C 62.707031 158.191406 62.207031 158.289062 61.707031 158.289062 Z M 50.707031 145.792969 L 61.007812 155.988281 C 61.308594 156.488281 61.90625 156.691406 62.40625 156.390625 C 62.90625 156.089844 63.105469 155.488281 62.808594 154.988281 L 61.105469 147.792969 C 60.90625 146.890625 61.308594 146.089844 62.105469 145.691406 C 79.804688 136.792969 94.101562 127.59375 104.597656 118.496094 L 97.199219 111.097656 L 85.703125 110.898438 Z M 50.707031 145.792969 "/>
<path style=" stroke:none;fill-rule:nonzero;fill:rgb(100%,100%,100%);fill-opacity:1;" d="M 40.710938 154.390625 L 49.308594 145.792969 L 62.105469 158.589844 L 41.710938 157.191406 C 40.8125 157.089844 40.210938 156.289062 40.3125 155.390625 C 40.3125 154.988281 40.410156 154.589844 40.710938 154.390625 Z M 40.710938 154.390625 "/>
<path style=" stroke:none;fill-rule:nonzero;fill:rgb(100%,42.352942%,21.568628%);fill-opacity:1;" d="M 62.105469 159.488281 L 41.609375 158.089844 C 40.109375 157.988281 39.109375 156.691406 39.210938 155.191406 C 39.3125 154.589844 39.511719 153.992188 40.011719 153.589844 L 48.609375 144.992188 C 48.792969 144.800781 49.042969 144.691406 49.308594 144.691406 C 49.574219 144.691406 49.828125 144.800781 50.007812 144.992188 L 62.804688 157.789062 C 63.105469 158.089844 63.207031 158.488281 63.007812 158.890625 C 62.808594 159.289062 62.507812 159.488281 62.105469 159.488281 Z M 49.308594 147.191406 L 41.410156 155.089844 C 41.109375 155.289062 41.109375 155.789062 41.410156 155.988281 C 41.511719 156.089844 41.609375 156.191406 41.808594 156.191406 L 59.507812 157.390625 Z M 81.601562 114.496094 C 81.003906 114.496094 80.601562 113.996094 80.601562 113.496094 C 80.601562 113.199219 80.703125 112.996094 80.902344 112.796875 L 90.601562 103.097656 C 90.785156 102.90625 91.035156 102.800781 91.300781 102.800781 C 91.566406 102.800781 91.820312 102.90625 92 103.097656 L 98.300781 109.398438 C 98.601562 109.699219 98.699219 110 98.601562 110.398438 C 98.5 110.699219 98.199219 110.996094 97.800781 111.097656 L 81.804688 114.496094 Z M 91.300781 105.199219 L 84.703125 111.796875 L 95.5 109.5 Z M 91.300781 105.199219 "/>
<path style=" stroke:none;fill-rule:nonzero;fill:rgb(100%,100%,100%);fill-opacity:1;" d="M 97.5 110.097656 L 86.503906 112.496094 C 85.703125 112.699219 84.902344 112.199219 84.703125 111.398438 C 84.601562 110.898438 84.703125 110.398438 85.101562 110 L 91.203125 103.898438 Z M 97.5 110.097656 "/>
<path style=" stroke:none;fill-rule:nonzero;fill:rgb(100%,42.352942%,21.568628%);fill-opacity:1;" d="M 86.300781 113.496094 C 85.636719 113.503906 84.996094 113.242188 84.527344 112.773438 C 84.058594 112.300781 83.796875 111.664062 83.800781 110.996094 C 83.800781 110.296875 84.101562 109.699219 84.503906 109.199219 L 90.601562 103.097656 C 90.785156 102.90625 91.035156 102.800781 91.300781 102.800781 C 91.566406 102.800781 91.820312 102.90625 92 103.097656 L 98.300781 109.398438 C 98.601562 109.699219 98.699219 110 98.601562 110.398438 C 98.5 110.699219 98.199219 110.996094 97.800781 111.097656 L 86.800781 113.496094 Z M 91.300781 105.199219 L 85.902344 110.597656 C 85.703125 110.796875 85.703125 110.996094 85.800781 111.199219 C 85.902344 111.398438 86.101562 111.496094 86.402344 111.496094 L 95.601562 109.496094 Z M 158.789062 50.707031 C 158.589844 50.109375 157.890625 49.808594 157.289062 50.007812 C 156.691406 50.207031 156.390625 50.910156 156.589844 51.507812 C 156.589844 51.609375 156.691406 51.707031 156.691406 51.808594 C 157.289062 53.007812 157.089844 54.507812 156.289062 55.609375 C 155.890625 56.109375 155.988281 56.808594 156.390625 57.207031 C 156.890625 57.609375 157.589844 57.507812 157.988281 57.007812 C 159.488281 55.109375 159.789062 52.707031 158.789062 50.707031 Z M 158.789062 50.707031 "/>
</g>
</svg>
