<?xml version="1.0" encoding="UTF-8"?>
<svg xmlns="http://www.w3.org/2000/svg" xmlns:xlink="http://www.w3.org/1999/xlink" width="200px" height="200px" viewBox="0 0 200 200" version="1.1">
<g id="surface1">
<path style=" stroke:none;fill-rule:nonzero;fill:rgb(0%,0%,0%);fill-opacity:1;" d="M 196.21875 119.761719 C 195.054688 116.238281 192.007812 113.789062 188.070312 113.199219 C 186.210938 112.921875 184.085938 113.039062 181.566406 113.558594 C 177.179688 114.464844 173.925781 114.808594 171.546875 114.875 C 180.515625 99.734375 187.808594 82.46875 192.003906 66.21875 C 198.792969 39.9375 195.164062 27.964844 190.925781 22.550781 C 179.710938 8.21875 163.34375 0.515625 143.601562 0.28125 C 133.066406 0.152344 123.820312 2.234375 118.996094 3.726562 C 114.507812 2.9375 109.679688 2.492188 104.613281 2.410156 C 95.113281 2.261719 86.722656 4.332031 79.550781 8.585938 C 75.582031 7.242188 69.210938 5.351562 61.851562 4.144531 C 44.546875 1.300781 30.601562 3.515625 20.398438 10.722656 C 8.046875 19.449219 2.320312 34.609375 3.378906 55.785156 C 3.714844 62.507812 7.476562 82.960938 13.398438 102.359375 C 16.800781 113.507812 20.429688 122.769531 24.183594 129.882812 C 29.507812 139.96875 35.203125 145.910156 41.597656 148.042969 C 45.183594 149.238281 51.695312 150.074219 58.542969 144.367188 C 59.410156 145.417969 60.570312 146.464844 62.105469 147.433594 C 64.058594 148.664062 66.445312 149.671875 68.832031 150.269531 C 77.421875 152.414062 85.46875 151.878906 92.335938 148.867188 C 92.378906 150.089844 92.410156 151.257812 92.4375 152.261719 C 92.484375 153.898438 92.527344 155.5 92.589844 157 C 92.996094 167.128906 93.683594 175.007812 95.726562 180.519531 C 95.839844 180.824219 95.988281 181.285156 96.148438 181.777344 C 97.167969 184.894531 98.871094 190.117188 103.207031 194.207031 C 107.695312 198.445312 113.125 199.746094 118.097656 199.746094 C 120.589844 199.746094 122.972656 199.417969 125.058594 198.96875 C 132.496094 197.375 140.945312 194.945312 147.058594 186.242188 C 152.835938 178.015625 155.648438 165.625 156.15625 146.101562 C 156.222656 145.546875 156.28125 145.019531 156.339844 144.519531 L 156.460938 143.488281 L 157.824219 143.605469 L 158.171875 143.628906 C 165.75 143.976562 175.015625 142.367188 180.707031 139.726562 C 185.203125 137.636719 199.609375 130.03125 196.21875 119.761719 "/>
<path style=" stroke:none;fill-rule:nonzero;fill:rgb(20%,40.392157%,56.862748%);fill-opacity:1;" d="M 183.261719 121.757812 C 160.730469 126.40625 159.183594 118.777344 159.183594 118.777344 C 182.96875 83.480469 192.914062 38.675781 184.335938 27.710938 C 160.921875 -2.203125 120.394531 11.945312 119.71875 12.3125 L 119.5 12.351562 C 115.050781 11.425781 110.070312 10.875 104.46875 10.785156 C 94.277344 10.617188 86.542969 13.457031 80.675781 17.90625 C 80.675781 17.90625 8.378906 -11.875 11.742188 55.363281 C 12.457031 69.667969 32.246094 163.601562 55.847656 135.230469 C 64.472656 124.855469 72.808594 116.082031 72.808594 116.082031 C 76.949219 118.832031 81.902344 120.234375 87.097656 119.730469 L 87.503906 119.390625 C 87.378906 120.675781 87.433594 121.9375 87.664062 123.429688 C 81.585938 130.222656 83.371094 131.414062 71.214844 133.917969 C 58.917969 136.453125 66.140625 140.964844 70.859375 142.144531 C 76.578125 143.574219 89.808594 145.597656 98.75 133.085938 L 98.390625 134.511719 C 100.773438 136.421875 102.445312 146.925781 102.167969 156.445312 C 101.886719 165.96875 101.699219 172.503906 103.574219 177.609375 C 105.453125 182.714844 107.324219 194.207031 123.304688 190.78125 C 136.652344 187.921875 143.574219 180.507812 144.535156 168.136719 C 145.21875 159.34375 146.765625 160.644531 146.863281 152.785156 L 148.101562 149.0625 C 149.53125 137.144531 148.328125 133.296875 156.554688 135.085938 L 158.554688 135.261719 C 164.605469 135.539062 172.53125 134.289062 177.183594 132.128906 C 187.195312 127.480469 193.136719 119.71875 183.261719 121.757812 "/>
<path style=" stroke:none;fill-rule:nonzero;fill:rgb(100%,100%,100%);fill-opacity:1;" d="M 84.90625 61.761719 C 82.875 61.480469 81.039062 61.738281 80.105469 62.445312 C 79.585938 62.839844 79.421875 63.300781 79.378906 63.617188 C 79.261719 64.453125 79.847656 65.378906 80.207031 65.855469 C 81.226562 67.207031 82.71875 68.136719 84.191406 68.339844 C 84.40625 68.371094 84.617188 68.386719 84.828125 68.386719 C 87.289062 68.386719 89.523438 66.46875 89.71875 65.058594 C 89.964844 63.289062 87.398438 62.109375 84.90625 61.761719 M 152.167969 61.816406 C 151.972656 60.429688 149.503906 60.035156 147.164062 60.359375 C 144.824219 60.6875 142.554688 61.742188 142.742188 63.132812 C 142.894531 64.214844 144.847656 66.058594 147.160156 66.058594 C 147.355469 66.058594 147.550781 66.046875 147.75 66.019531 C 149.292969 65.804688 150.421875 64.824219 150.960938 64.261719 C 151.78125 63.398438 152.253906 62.441406 152.167969 61.816406 "/>
<path style=" stroke:none;fill-rule:nonzero;fill:rgb(100%,100%,100%);fill-opacity:1;" d="M 190.757812 121.230469 C 189.898438 118.632812 187.136719 117.796875 182.539062 118.746094 C 168.902344 121.5625 164.015625 119.613281 162.414062 118.429688 C 173.015625 102.277344 181.738281 82.753906 186.441406 64.539062 C 188.671875 55.910156 189.902344 47.894531 190.003906 41.363281 C 190.113281 34.195312 188.890625 28.925781 186.375 25.710938 C 176.222656 12.734375 161.320312 5.777344 143.28125 5.585938 C 130.882812 5.445312 120.402344 8.621094 118.371094 9.511719 C 114.09375 8.449219 109.433594 7.796875 104.355469 7.710938 C 95.046875 7.5625 87 9.789062 80.335938 14.332031 C 77.445312 13.257812 69.964844 10.6875 60.820312 9.214844 C 45.007812 6.667969 32.441406 8.597656 23.476562 14.949219 C 12.777344 22.53125 7.835938 36.082031 8.792969 55.222656 C 9.113281 61.664062 12.785156 81.476562 18.574219 100.449219 C 26.199219 125.421875 34.484375 139.558594 43.203125 142.46875 C 44.222656 142.808594 45.398438 143.046875 46.699219 143.046875 C 49.878906 143.046875 53.777344 141.613281 57.835938 136.734375 C 62.78125 130.800781 67.902344 125.007812 73.183594 119.367188 C 76.609375 121.207031 80.375 122.234375 84.226562 122.335938 C 84.234375 122.4375 84.242188 122.539062 84.253906 122.636719 C 83.589844 123.429688 82.941406 124.230469 82.304688 125.042969 C 79.636719 128.429688 79.082031 129.136719 70.492188 130.902344 C 68.050781 131.410156 61.5625 132.746094 61.464844 137.292969 C 61.363281 142.261719 69.136719 144.351562 70.023438 144.570312 C 73.109375 145.34375 76.082031 145.726562 78.917969 145.726562 C 85.8125 145.726562 91.882812 143.460938 96.734375 139.074219 C 96.585938 156.789062 97.324219 174.246094 99.449219 179.566406 C 101.191406 183.921875 105.449219 194.5625 118.890625 194.5625 C 120.863281 194.5625 123.035156 194.332031 125.425781 193.820312 C 139.457031 190.8125 145.550781 184.613281 147.90625 170.9375 C 149.167969 163.632812 151.332031 146.183594 152.351562 136.824219 C 154.5 137.496094 157.265625 137.804688 160.253906 137.800781 C 166.492188 137.800781 173.6875 136.476562 178.199219 134.382812 C 183.269531 132.027344 192.417969 126.25 190.757812 121.230469 Z M 157.34375 57.988281 C 157.300781 60.75 156.917969 63.261719 156.515625 65.878906 C 156.082031 68.695312 155.632812 71.605469 155.519531 75.140625 C 155.410156 78.578125 155.839844 82.15625 156.253906 85.613281 C 157.09375 92.597656 157.953125 99.789062 154.621094 106.882812 C 154.066406 105.902344 153.574219 104.886719 153.144531 103.847656 C 152.730469 102.84375 151.828125 101.230469 150.582031 98.996094 C 145.734375 90.300781 134.382812 69.941406 140.195312 61.636719 C 141.925781 59.164062 146.316406 56.621094 157.34375 57.988281 Z M 143.980469 11.179688 C 160.140625 11.539062 172.925781 17.582031 181.976562 29.148438 C 188.917969 38.023438 181.273438 78.390625 159.144531 113.21875 C 158.921875 112.933594 158.699219 112.652344 158.472656 112.371094 L 158.191406 112.019531 C 163.910156 102.578125 162.792969 93.230469 161.796875 84.945312 C 161.386719 81.546875 161.003906 78.335938 161.101562 75.320312 C 161.203125 72.121094 161.625 69.378906 162.035156 66.726562 C 162.535156 63.460938 163.046875 60.078125 162.90625 56.09375 C 163.011719 55.675781 163.054688 55.183594 163 54.59375 C 162.640625 50.773438 158.277344 39.335938 149.382812 28.980469 C 144.515625 23.320312 137.421875 16.980469 127.734375 12.707031 C 131.902344 11.84375 137.597656 11.039062 143.980469 11.179688 Z M 53.539062 133.164062 C 49.070312 138.539062 45.984375 137.507812 44.96875 137.171875 C 38.355469 134.964844 30.683594 120.988281 23.914062 98.820312 C 18.0625 79.640625 14.640625 60.351562 14.367188 54.945312 C 13.515625 37.839844 17.660156 25.917969 26.691406 19.511719 C 41.394531 9.089844 65.5625 15.328125 75.273438 18.492188 C 75.132812 18.628906 74.988281 18.757812 74.851562 18.898438 C 58.914062 34.992188 59.292969 62.488281 59.332031 64.171875 C 59.328125 64.820312 59.382812 65.738281 59.457031 67 C 59.734375 71.625 60.242188 80.234375 58.878906 89.980469 C 57.613281 99.039062 60.40625 107.90625 66.539062 114.304688 C 67.167969 114.960938 67.832031 115.585938 68.523438 116.175781 C 65.792969 119.101562 59.859375 125.566406 53.539062 133.164062 Z M 70.570312 110.441406 C 65.625 105.285156 63.382812 98.109375 64.410156 90.753906 C 65.847656 80.457031 65.316406 71.488281 65.03125 66.671875 C 64.992188 65.996094 64.957031 65.40625 64.9375 64.9375 C 67.261719 62.875 78.050781 57.09375 85.746094 58.859375 C 89.257812 59.660156 91.394531 62.050781 92.285156 66.164062 C 96.886719 87.453125 92.894531 96.328125 89.6875 103.460938 C 89.023438 104.929688 88.398438 106.316406 87.867188 107.753906 L 87.453125 108.863281 C 86.40625 111.671875 85.429688 114.28125 84.828125 116.761719 C 79.570312 116.746094 74.457031 114.5 70.570312 110.441406 Z M 71.378906 139.15625 C 69.84375 138.773438 68.460938 138.105469 67.652344 137.554688 C 68.328125 137.234375 69.53125 136.800781 71.621094 136.371094 C 81.722656 134.292969 83.285156 132.824219 86.691406 128.496094 C 87.472656 127.503906 88.359375 126.382812 89.585938 125.011719 C 91.414062 122.964844 92.25 123.3125 93.765625 123.941406 C 94.992188 124.449219 96.1875 125.988281 96.671875 127.679688 C 96.902344 128.480469 97.160156 130 96.316406 131.179688 C 89.199219 141.148438 78.828125 141.019531 71.378906 139.15625 Z M 124.253906 188.363281 C 111.894531 191.011719 107.519531 184.703125 104.632812 177.492188 C 102.773438 172.839844 101.859375 151.847656 102.507812 128.667969 C 102.515625 128.363281 102.472656 128.0625 102.386719 127.785156 C 102.308594 127.230469 102.195312 126.683594 102.039062 126.144531 C 101.074219 122.773438 98.722656 119.953125 95.902344 118.78125 C 94.78125 118.316406 92.722656 117.464844 90.25 118.097656 C 90.777344 115.925781 91.691406 113.472656 92.683594 110.8125 L 93.097656 109.695312 C 93.566406 108.4375 94.15625 107.132812 94.777344 105.75 C 98.136719 98.289062 102.734375 88.070312 97.742188 64.984375 C 95.871094 56.335938 89.628906 52.113281 80.164062 53.097656 C 74.488281 53.683594 69.296875 55.972656 66.707031 57.285156 C 66.152344 57.566406 65.640625 57.839844 65.167969 58.105469 C 65.890625 49.394531 68.621094 33.113281 78.832031 22.808594 C 85.265625 16.324219 93.828125 13.121094 104.261719 13.292969 C 124.824219 13.632812 138.007812 24.183594 145.449219 32.976562 C 151.863281 40.550781 155.335938 48.183594 156.71875 52.300781 C 146.300781 51.242188 139.210938 53.296875 135.621094 58.433594 C 127.804688 69.609375 139.894531 91.292969 145.707031 101.714844 C 146.773438 103.625 147.691406 105.273438 147.980469 105.976562 C 149.875 110.5625 152.324219 113.625 154.113281 115.859375 C 154.660156 116.542969 155.191406 117.210938 155.597656 117.789062 C 152.441406 118.699219 146.773438 120.800781 147.289062 131.308594 C 146.871094 136.582031 143.910156 161.269531 142.40625 169.992188 C 140.417969 181.511719 136.175781 185.804688 124.253906 188.363281 Z M 175.847656 129.320312 C 172.621094 130.816406 167.222656 131.941406 162.089844 132.183594 C 156.425781 132.445312 153.539062 131.546875 152.859375 130.992188 C 152.542969 124.445312 154.980469 123.761719 157.558594 123.035156 C 157.964844 122.921875 158.359375 122.8125 158.742188 122.679688 C 158.980469 122.871094 159.238281 123.0625 159.523438 123.25 C 164.078125 126.257812 172.203125 126.582031 183.671875 124.214844 L 183.796875 124.1875 C 182.25 125.636719 179.601562 127.574219 175.847656 129.320312 Z M 175.847656 129.320312 "/>
</g>
</svg>
