<?xml version="1.0" encoding="UTF-8"?>
<svg xmlns="http://www.w3.org/2000/svg" xmlns:xlink="http://www.w3.org/1999/xlink" width="200px" height="49px" viewBox="0 0 200 49" version="1.1">
<g id="surface1">
<path style=" stroke:none;fill-rule:nonzero;fill:rgb(0.392157%,65.490198%,10.980392%);fill-opacity:1;" d="M 66.292969 37.96875 C 65.058594 37.957031 63.828125 37.859375 62.605469 37.679688 C 61.28125 37.5 59.96875 37.246094 58.675781 36.917969 L 58.675781 34.921875 C 59.957031 35.246094 61.253906 35.5 62.5625 35.683594 C 63.75 35.859375 64.949219 35.957031 66.148438 35.96875 C 67.8125 36.074219 69.464844 35.652344 70.871094 34.761719 C 71.957031 33.964844 72.574219 32.675781 72.507812 31.328125 C 72.574219 29.90625 71.902344 28.550781 70.726562 27.75 C 70.15625 27.332031 69.53125 26.992188 68.875 26.726562 C 68.128906 26.449219 67.332031 26.1875 66.480469 25.9375 C 65.335938 25.609375 64.21875 25.191406 63.136719 24.6875 C 62.304688 24.308594 61.539062 23.800781 60.871094 23.175781 C 60.300781 22.640625 59.859375 21.984375 59.578125 21.25 C 59.292969 20.449219 59.152344 19.601562 59.160156 18.75 C 59.148438 17.792969 59.351562 16.847656 59.75 15.976562 C 60.144531 15.140625 60.714844 14.40625 61.429688 13.820312 C 62.195312 13.171875 63.082031 12.683594 64.039062 12.382812 C 65.148438 12.074219 66.292969 11.933594 67.441406 11.96875 C 69.574219 12.011719 71.695312 12.285156 73.769531 12.785156 L 73.769531 14.828125 C 72.714844 14.554688 71.648438 14.34375 70.570312 14.195312 C 69.617188 14.058594 68.660156 13.988281 67.699219 13.980469 C 66.121094 13.898438 64.566406 14.351562 63.28125 15.273438 C 62.160156 16.070312 61.503906 17.371094 61.53125 18.75 C 61.519531 19.34375 61.621094 19.933594 61.832031 20.488281 C 62.046875 21.042969 62.390625 21.535156 62.835938 21.925781 C 63.378906 22.398438 63.996094 22.78125 64.65625 23.0625 C 65.589844 23.457031 66.546875 23.785156 67.527344 24.039062 C 68.589844 24.355469 69.574219 24.695312 70.484375 25.058594 C 71.335938 25.386719 72.136719 25.84375 72.851562 26.410156 C 73.515625 26.949219 74.054688 27.625 74.429688 28.394531 C 74.835938 29.296875 75.03125 30.28125 75.003906 31.269531 C 75.113281 33.203125 74.277344 35.066406 72.765625 36.269531 C 70.855469 37.542969 68.578125 38.140625 66.292969 37.96875 Z M 66.292969 37.96875 "/>
<path style=" stroke:none;fill-rule:nonzero;fill:rgb(0.392157%,65.490198%,10.980392%);fill-opacity:1;" d="M 86.984375 37.894531 C 84.695312 38.058594 82.453125 37.207031 80.84375 35.566406 C 79.339844 33.648438 78.59375 31.246094 78.75 28.8125 C 78.59375 26.25 79.316406 23.714844 80.800781 21.625 C 82.273438 19.894531 84.476562 18.960938 86.742188 19.109375 C 88.628906 18.980469 90.46875 19.742188 91.71875 21.164062 C 92.9375 22.890625 93.535156 24.976562 93.414062 27.085938 C 93.414062 27.605469 93.414062 28.046875 93.414062 28.410156 C 93.402344 28.71875 93.359375 29.027344 93.285156 29.328125 L 80.988281 29.328125 C 80.9375 31.152344 81.53125 32.933594 82.667969 34.359375 C 83.894531 35.527344 85.554688 36.125 87.242188 35.996094 C 88.121094 35.992188 88.992188 35.910156 89.855469 35.753906 C 90.796875 35.582031 91.722656 35.332031 92.625 35.007812 L 92.796875 36.832031 C 91.867188 37.1875 90.90625 37.453125 89.925781 37.621094 C 88.957031 37.800781 87.972656 37.894531 86.984375 37.894531 Z M 86.667969 20.804688 C 83.148438 20.804688 81.265625 23.078125 81.015625 27.617188 L 91.277344 27.617188 C 91.417969 25.808594 91.027344 23.996094 90.15625 22.402344 C 89.34375 21.304688 88.027344 20.703125 86.667969 20.804688 Z M 86.667969 20.804688 "/>
<path style=" stroke:none;fill-rule:nonzero;fill:rgb(0.392157%,65.490198%,10.980392%);fill-opacity:1;" d="M 98.492188 10.128906 L 100.761719 10.128906 L 100.761719 37.59375 L 98.492188 37.59375 Z M 98.492188 10.128906 "/>
<path style=" stroke:none;fill-rule:nonzero;fill:rgb(0.392157%,65.490198%,10.980392%);fill-opacity:1;" d="M 114.164062 37.894531 C 111.875 38.058594 109.628906 37.207031 108.019531 35.566406 C 106.523438 33.648438 105.78125 31.242188 105.941406 28.8125 C 105.785156 26.25 106.507812 23.714844 107.992188 21.625 C 109.464844 19.894531 111.667969 18.960938 113.933594 19.109375 C 115.820312 18.980469 117.664062 19.742188 118.914062 21.164062 C 120.105469 22.898438 120.675781 24.988281 120.535156 27.085938 C 120.535156 27.605469 120.535156 28.046875 120.535156 28.410156 C 120.523438 28.71875 120.476562 29.027344 120.40625 29.328125 L 108.164062 29.328125 C 108.117188 31.152344 108.710938 32.933594 109.84375 34.359375 C 111.074219 35.53125 112.742188 36.128906 114.433594 35.996094 C 115.3125 35.992188 116.183594 35.910156 117.046875 35.753906 C 117.988281 35.582031 118.914062 35.332031 119.816406 35.007812 L 119.988281 36.832031 C 119.058594 37.1875 118.097656 37.453125 117.117188 37.621094 C 116.144531 37.800781 115.152344 37.894531 114.164062 37.894531 Z M 113.863281 20.804688 C 110.339844 20.804688 108.457031 23.078125 108.207031 27.617188 L 118.46875 27.617188 C 118.609375 25.808594 118.21875 23.996094 117.347656 22.402344 C 116.539062 21.304688 115.21875 20.703125 113.863281 20.804688 Z M 113.863281 20.804688 "/>
<path style=" stroke:none;fill-rule:nonzero;fill:rgb(0.392157%,65.490198%,10.980392%);fill-opacity:1;" d="M 125.570312 19.28125 L 127.464844 19.28125 L 127.636719 21.425781 L 127.808594 21.425781 C 128.707031 20.992188 129.53125 20.621094 130.277344 20.304688 C 131.023438 19.988281 131.707031 19.726562 132.328125 19.527344 C 132.890625 19.335938 133.464844 19.1875 134.050781 19.082031 C 134.574219 18.992188 135.101562 18.949219 135.628906 18.953125 C 136.933594 18.855469 138.222656 19.300781 139.1875 20.1875 C 140.066406 21.242188 140.492188 22.601562 140.378906 23.96875 L 140.378906 37.636719 L 138.097656 37.636719 L 138.097656 24.703125 C 138.183594 23.679688 137.902344 22.660156 137.308594 21.828125 C 136.660156 21.203125 135.777344 20.890625 134.882812 20.964844 C 133.789062 20.988281 132.703125 21.1875 131.667969 21.554688 C 130.355469 21.996094 129.074219 22.535156 127.835938 23.164062 L 127.835938 37.535156 L 125.570312 37.535156 Z M 125.570312 19.28125 "/>
<path style=" stroke:none;fill-rule:nonzero;fill:rgb(0.392157%,65.490198%,10.980392%);fill-opacity:1;" d="M 147.4375 15.1875 C 147.035156 15.246094 146.628906 15.117188 146.332031 14.835938 C 146.035156 14.554688 145.882812 14.15625 145.917969 13.75 C 145.917969 12.90625 146.597656 12.226562 147.4375 12.226562 C 148.277344 12.226562 148.960938 12.90625 148.960938 13.75 C 148.996094 14.15625 148.84375 14.554688 148.546875 14.835938 C 148.25 15.117188 147.839844 15.246094 147.4375 15.1875 Z M 146.289062 19.28125 L 148.558594 19.28125 L 148.558594 37.59375 L 146.289062 37.59375 Z M 146.289062 19.28125 "/>
<path style=" stroke:none;fill-rule:nonzero;fill:rgb(0.392157%,65.490198%,10.980392%);fill-opacity:1;" d="M 159.003906 37.925781 C 156 37.925781 154.5 36.261719 154.5 32.9375 L 154.5 19.28125 L 156.765625 19.28125 L 156.765625 32.21875 C 156.667969 33.226562 156.910156 34.238281 157.453125 35.09375 C 158.039062 35.71875 158.882812 36.039062 159.734375 35.953125 C 160.953125 35.949219 162.160156 35.714844 163.292969 35.265625 C 164.492188 34.804688 165.730469 34.257812 167.011719 33.625 L 167.011719 19.28125 L 169.320312 19.28125 L 169.320312 37.59375 L 167.425781 37.59375 L 167.253906 35.324219 L 167.125 35.324219 L 164.644531 36.488281 C 163.933594 36.8125 163.277344 37.085938 162.664062 37.304688 C 162.089844 37.511719 161.5 37.667969 160.898438 37.78125 C 160.273438 37.886719 159.636719 37.933594 159.003906 37.925781 Z M 159.003906 37.925781 "/>
<path style=" stroke:none;fill-rule:nonzero;fill:rgb(0.392157%,65.490198%,10.980392%);fill-opacity:1;" d="M 175.320312 19.28125 L 177.183594 19.28125 L 177.386719 21.425781 L 177.515625 21.425781 C 178.699219 20.707031 179.9375 20.078125 181.21875 19.542969 C 182.128906 19.167969 183.101562 18.96875 184.085938 18.953125 C 185.933594 18.710938 187.710938 19.757812 188.390625 21.496094 L 188.5625 21.496094 C 189.328125 21.015625 190.023438 20.621094 190.644531 20.304688 C 191.203125 20.015625 191.777344 19.753906 192.367188 19.527344 C 192.832031 19.339844 193.3125 19.1875 193.800781 19.082031 C 194.273438 18.992188 194.753906 18.949219 195.234375 18.953125 C 196.523438 18.859375 197.792969 19.292969 198.75 20.160156 C 199.628906 21.214844 200.058594 22.570312 199.941406 23.941406 L 199.941406 37.609375 L 197.703125 37.609375 L 197.703125 24.671875 C 197.804688 23.648438 197.523438 22.625 196.914062 21.796875 C 196.261719 21.183594 195.382812 20.878906 194.488281 20.949219 C 193.613281 20.976562 192.746094 21.164062 191.9375 21.496094 C 190.859375 21.929688 189.824219 22.453125 188.835938 23.0625 L 188.835938 37.578125 L 186.539062 37.578125 L 186.539062 24.644531 C 186.640625 23.621094 186.359375 22.597656 185.75 21.769531 C 185.097656 21.15625 184.21875 20.847656 183.324219 20.921875 C 182.410156 20.949219 181.503906 21.144531 180.65625 21.496094 C 179.589844 21.929688 178.5625 22.453125 177.585938 23.0625 L 177.585938 37.59375 L 175.320312 37.59375 Z M 175.320312 19.28125 "/>
<path style=" stroke:none;fill-rule:nonzero;fill:rgb(0.392157%,65.490198%,10.980392%);fill-opacity:1;" d="M 30.777344 30.980469 C 28.921875 30.925781 27.328125 32.308594 27.121094 34.160156 L 34.335938 34.300781 C 34.308594 32.28125 32.667969 30.859375 30.777344 30.980469 Z M 30.777344 30.980469 "/>
<path style=" stroke:none;fill-rule:nonzero;fill:rgb(0.392157%,65.490198%,10.980392%);fill-opacity:1;" d="M 46.003906 7.125 L 30.9375 24.070312 C 30.851562 24.164062 30.726562 24.214844 30.601562 24.214844 C 30.472656 24.214844 30.347656 24.164062 30.261719 24.070312 L 22.570312 16.121094 C 22.4375 15.953125 22.4375 15.714844 22.570312 15.546875 L 25.109375 12.285156 C 25.199219 12.164062 25.335938 12.089844 25.484375 12.089844 C 25.632812 12.089844 25.769531 12.164062 25.855469 12.285156 L 30.164062 17.054688 C 30.25 17.160156 30.378906 17.21875 30.515625 17.21875 C 30.648438 17.21875 30.777344 17.160156 30.867188 17.054688 L 42.859375 0.585938 L 0.359375 0.0664062 L 0 48.574219 L 46.277344 48.933594 L 46.636719 7.339844 Z M 13 43.574219 C 9.984375 43.722656 7.03125 42.691406 4.765625 40.699219 C 4.617188 40.53125 4.617188 40.277344 4.765625 40.109375 L 6.558594 37.59375 C 6.617188 37.488281 6.714844 37.414062 6.832031 37.382812 C 6.949219 37.355469 7.070312 37.371094 7.175781 37.433594 C 8.8125 38.957031 10.96875 39.800781 13.203125 39.792969 C 15.554688 39.792969 16.703125 38.699219 16.703125 37.550781 C 16.703125 33.984375 5.109375 36.429688 5.109375 28.839844 C 5.109375 25.492188 7.976562 22.703125 12.742188 22.703125 C 15.476562 22.605469 18.152344 23.503906 20.277344 25.234375 C 20.441406 25.40625 20.441406 25.679688 20.277344 25.851562 L 18.511719 28.308594 C 18.4375 28.40625 18.324219 28.472656 18.203125 28.484375 C 18.082031 28.5 17.957031 28.460938 17.863281 28.378906 C 16.300781 27.132812 14.355469 26.464844 12.355469 26.484375 C 10.519531 26.484375 9.484375 27.300781 9.484375 28.511719 C 9.484375 31.714844 21.050781 29.574219 21.050781 37.132812 C 21.050781 40.785156 18.425781 43.574219 12.984375 43.574219 Z M 38.285156 36.574219 L 27.261719 36.976562 C 27.503906 39.179688 29.375 40.625 31.453125 40.453125 C 32.769531 40.425781 34.050781 40.003906 35.128906 39.246094 L 36.992188 41.214844 C 35.203125 42.992188 33.132812 43.640625 31.023438 43.585938 C 28.890625 43.707031 26.808594 42.917969 25.289062 41.417969 C 23.765625 39.917969 22.945312 37.847656 23.03125 35.710938 C 22.972656 33.625 23.765625 31.609375 25.230469 30.128906 C 26.691406 28.644531 28.699219 27.828125 30.777344 27.863281 C 35.242188 27.863281 38.269531 31.210938 38.269531 36.113281 Z M 38.285156 36.574219 "/>
</g>
</svg>
